<svg width="382" height="72" viewBox="0 0 382 72" fill="none" xmlns="http://www.w3.org/2000/svg">
<path fill-rule="evenodd" clip-rule="evenodd" d="M135.148 7.41879H139.014C140.754 7.4188 142.936 7.89959 144.667 9.63108C146.39 11.3539 146.875 13.5228 146.88 15.2581C148.169 15.5292 149.522 16.1276 150.675 17.2808C151.587 18.1933 152.152 19.231 152.483 20.2631C154.283 16.6698 157.141 14.4783 160.14 13.0193L160.196 12.9922L160.252 12.9665C162.513 11.9301 165.117 11.2662 167.544 10.7516L167.598 10.74L167.653 10.7296C168.766 10.5176 169.839 10.3427 170.888 10.1955C170.705 9.44769 170.623 8.64187 170.668 7.78294L170.675 7.64263L170.69 7.50298C171.092 3.68298 174.375 0 179.08 0L179.199 0.000786778C184.15 0.0663039 187.553 4.22537 187.428 8.46035C187.423 8.90648 187.385 9.33074 187.32 9.73389C189.656 9.93366 191.112 10.2604 192.775 10.6966L193.226 10.8161L193.399 10.8623L193.569 10.9201C197.358 12.2068 199.841 14.5725 201.456 16.9611C202.004 16.8123 202.582 16.7121 203.19 16.6725L203.442 16.6561L203.693 16.6633C207.948 16.7849 211.785 18.8425 214.504 22.0359C214.655 20.4844 215.229 18.7291 216.672 17.2866C218.404 15.555 220.586 15.0741 222.325 15.0741H226.067C227.463 15.0741 229.144 15.3839 230.648 16.401C232.628 15.3442 235.065 14.6585 238.04 14.6585C241.137 14.6585 244.153 15.4242 246.819 16.9701V15.2508C246.819 13.5112 247.3 11.3292 249.032 9.59764C250.763 7.86612 252.945 7.38523 254.685 7.38522H258.302C260.042 7.38523 262.224 7.86613 263.955 9.59764C265.674 11.3162 266.16 13.4784 266.167 15.2114C267.618 14.8374 269.143 14.6585 270.712 14.6585C275.302 14.6585 279.57 16.2554 282.659 19.5657C282.937 19.8633 283.201 20.1705 283.452 20.4865C287.29 16.6406 292.55 14.6585 298.462 14.6585C303.245 14.6585 307.601 15.9557 311.123 18.4876C311.391 18.0717 311.712 17.6682 312.093 17.2866C313.825 15.555 316.007 15.0741 317.747 15.0741H321.197C322.625 15.0741 324.351 15.3982 325.881 16.4719C328.167 15.2856 330.819 14.6585 333.67 14.6585C338.277 14.6585 342.535 16.2776 345.611 19.5942C345.885 19.8901 346.146 20.1954 346.394 20.5093C350.18 16.6834 355.365 14.6585 361.181 14.6585C366.536 14.6585 371.756 16.3779 375.648 20.2695C379.559 24.1805 381.56 29.715 381.56 36.2435C381.56 37.7842 381.173 39.6529 379.892 41.2458C381.098 43.2319 381.079 45.5672 380.265 47.4983L380.263 47.503L380.261 47.5076C377.214 54.6913 369.913 58.369 361.534 58.369C356.694 58.369 352.255 57.1153 348.667 54.5535C348.431 54.8911 348.159 55.2195 347.845 55.5329C346.114 57.2644 343.932 57.7453 342.192 57.7453H338.326C336.586 57.7453 334.404 57.2644 332.673 55.5329C330.941 53.8014 330.46 51.6194 330.46 49.8798H329.479C329.479 51.6194 328.998 53.8014 327.266 55.5329C325.535 57.2644 323.353 57.7453 321.613 57.7453H317.747C316.007 57.7453 313.825 57.2644 312.093 55.5329C311.754 55.1936 311.463 54.8369 311.214 54.4697C307.679 57.0436 303.29 58.369 298.462 58.369C293.658 58.369 289.288 57.0568 285.762 54.5077C285.519 54.8615 285.236 55.2054 284.909 55.533C283.177 57.2645 280.995 57.7453 279.255 57.7453H275.389C273.649 57.7453 271.467 57.2644 269.736 55.5329C268.004 53.8014 267.523 51.6194 267.523 49.8798H266.417C266.417 51.6194 265.936 53.8014 264.204 55.5329C262.473 57.2644 260.291 57.7453 258.551 57.7453H254.685C252.945 57.7453 250.763 57.2644 249.032 55.5329C248.818 55.3194 248.624 55.0991 248.447 54.8736C245.449 57.1185 241.837 58.265 238.019 58.265C236.583 58.265 235.264 58.1036 234.057 57.8152V61.8532C234.057 63.5928 233.576 65.7748 231.845 67.5063C230.113 69.2378 227.931 69.7188 226.192 69.7188H222.325C220.586 69.7188 218.404 69.2379 216.672 67.5063C214.94 65.7748 214.46 63.5928 214.46 61.8532V59.2878C212.97 60.536 211.237 61.2778 209.556 61.614L209.231 61.6792L208.9 61.7037C208.119 61.7615 207.371 61.7354 206.657 61.6319C205.12 63.4755 203.23 65.3913 201.363 66.9364C198.052 69.7158 193.671 72.0825 188.113 71.9978C183.841 71.9876 180.094 70.4097 177.32 68.2116C177.012 68.319 176.697 68.4144 176.376 68.4968L176.312 68.5134L176.247 68.5284C174.943 68.8292 173.216 69.0477 171.527 68.9397L171.51 68.9387L171.495 68.9378L171.491 68.9376C163.231 68.4335 156.116 65.0291 151.966 60.2035L151.939 60.1719L151.007 59.0536L150.839 58.7974C150.384 58.1037 149.993 57.4043 149.659 56.7048C148.711 57.3062 147.677 57.6642 146.689 57.8397C146.671 57.8431 146.652 57.8465 146.634 57.8498C145.655 58.0244 144.59 58.1229 143.54 58.1706L143.531 58.1711L143.522 58.1713C139.481 58.3414 135.356 57.4886 132.152 54.8695C132.122 54.8455 132.093 54.8211 132.064 54.7968L132.046 54.7822C131.852 55.0376 131.636 55.2868 131.395 55.5272C129.664 57.2588 127.482 57.7397 125.742 57.7397H121.876C120.136 57.7397 117.954 57.2588 116.223 55.5272C114.491 53.7957 114.01 51.6137 114.01 49.8741H113.029C113.029 51.6137 112.548 53.7957 110.816 55.5272C109.085 57.2588 106.903 57.7397 105.163 57.7397H101.297C99.557 57.7397 97.375 57.2588 95.6435 55.5272C95.5103 55.3941 95.3844 55.2583 95.2657 55.1202C91.8554 57.2728 87.6132 58.3632 83.0514 58.3632C78.7154 58.3632 74.7011 57.3569 71.3326 55.3055C70.717 59.823 68.4926 63.5804 64.9645 66.2123C60.9777 69.1865 55.8101 70.3782 50.5253 70.3782C42.2535 70.3782 35.4034 67.2693 32.1615 61.2583L32.1497 61.2362C31.6025 60.2103 31.2416 59.0023 31.2121 57.7397H28.0498C26.7799 57.7397 25.2079 57.497 23.7473 56.6293C21.515 57.7391 18.8958 58.3425 15.9725 58.3425C12.0484 58.3425 8.04576 57.3138 4.92877 54.6899C1.68297 51.9575 0 47.9961 0 43.4509C1.91015e-06 39.1157 1.51561 35.6406 4.12232 33.1363C3.73067 32.7882 3.36269 32.3836 3.03211 31.9141C1.2746 29.4179 1.57225 26.565 2.56699 24.4949C5.74574 17.8785 12.573 14.6527 20.4001 14.6527C24.652 14.6527 29.2387 15.594 32.9247 18.1765C33.7415 18.7488 34.4952 19.3901 35.1771 20.0967C38.5765 16.4551 43.1341 14.6527 47.8853 14.6527C50.849 14.6527 53.2862 15.3335 55.2712 16.3854C56.7718 15.3761 58.4464 15.0685 59.8379 15.0685H63.6419C65.3816 15.0685 67.5636 15.5493 69.2951 17.2808C69.6769 17.6626 69.9979 18.0665 70.2664 18.4826C73.7322 15.9686 78.0103 14.6527 82.698 14.6527C87.0356 14.6527 91.2839 15.7808 94.8098 18.2771C95.0485 17.9335 95.3247 17.5995 95.6434 17.2808C97.3749 15.5493 99.557 15.0685 101.297 15.0685H104.747C106.175 15.0685 107.901 15.3926 109.431 16.4662C111.716 15.2799 114.369 14.6527 117.22 14.6527C120.266 14.6527 123.16 15.3608 125.66 16.7993C126.178 16.3734 126.726 16.0435 127.282 15.7916V15.2843C127.282 13.5447 127.763 11.3626 129.495 9.63108C131.226 7.89959 133.408 7.4188 135.148 7.41879ZM176.031 8.06526C176.173 6.7182 177.379 5.37107 179.08 5.37107L179.166 5.37225C180.961 5.41981 182.128 6.95296 182.058 8.34876C182.058 9.90852 180.853 10.7594 179.931 11.043L179.364 14.9424C179.718 14.9069 180.055 14.9069 180.365 14.9069C180.675 14.9069 180.959 14.9069 181.207 14.8714H182.909L184.397 14.9424C188.297 15.0842 189.715 15.4386 191.842 16.0058C195.599 17.282 197.443 20.1888 198.364 22.5993C196.238 26.0733 194.465 29.8309 194.465 32.525C194.465 34.2265 195.599 35.8572 196.946 36.8498C197.075 36.9597 197.246 37.0792 197.432 37.2069C197.459 37.225 197.486 37.2438 197.513 37.2623C198.033 37.6167 198.64 38.031 198.79 38.4805L198.789 38.553C198.787 38.7663 198.763 39.2781 198.577 39.8984C197.372 43.5142 192.48 49.6112 191.487 49.6824C191.177 49.7083 190.79 49.4979 190.287 49.2238C189.412 48.7471 188.183 48.0776 186.383 48.1226C183.071 48.1226 181.306 50.1031 179.064 52.6185C178.907 52.7953 178.747 52.9748 178.584 53.1564C175.909 51.1501 173.864 51.1625 172.57 51.1703C172.492 51.1708 172.417 51.1713 172.345 51.1713C166.744 50.9586 163.483 49.6115 161.568 48.4063L162.419 49.4697C164.83 51.9512 168.091 52.8728 171.99 53.1564L173.763 53.2982C177.662 53.7945 179.009 56.7013 179.009 58.5447C179.009 60.8134 177.52 62.6568 175.039 63.2948C174.117 63.5075 172.912 63.6494 171.848 63.5785C164.759 63.1531 159.087 60.2463 156.038 56.7014L155.329 55.8506C153.84 53.5819 153.344 51.2421 153.344 49.1861C153.344 47.4003 153.876 45.3484 154.748 43.675L154.833 43.5143L155.542 42.3799L155.329 36.9207C155.4 31.6743 155.684 26.4278 156.747 23.9464C157.811 20.8978 159.867 19.1253 162.49 17.8491C164.192 17.0692 166.318 16.5021 168.658 16.0058C171.636 15.4386 174.33 15.1551 177.166 14.9424L177.804 10.972C176.811 10.4757 175.961 9.4123 176.031 8.06526ZM361.378 20.0304C369.722 20.1136 376.189 25.4773 376.189 36.2435L376.188 36.3169C376.162 37.8496 375.291 38.6755 373.695 38.6755H354.446V38.6964C354.446 43.4194 357.208 46.3416 361.576 46.387L361.68 46.3875C363.787 46.3875 365.552 45.743 366.717 44.4737L366.772 44.4128C367.708 43.3319 368.456 42.729 369.849 42.8121L373.133 43.0408C374.9 43.1655 375.877 44.0802 375.316 45.4106L375.269 45.5193C373.264 50.1124 368.361 52.9979 361.534 52.9979L361.304 52.9967C351.608 52.8989 345.694 46.5995 345.694 36.5553C345.694 26.7022 351.785 20.0295 361.181 20.0295L361.378 20.0304ZM203.682 48.6195C204.603 46.4925 206.376 45.2873 208.503 45.3581C209.212 45.3581 209.992 45.5707 210.772 46.067C211.339 46.3506 211.835 46.8469 212.048 47.1305C213.962 49.2574 213.111 52.1643 212.119 53.8658C211.268 55.2838 209.921 56.0637 208.503 56.3473C206.589 56.4891 205.667 55.6383 204.958 54.9293C203.044 53.1569 202.831 50.7464 203.682 48.6195ZM282.747 36.5344C282.747 26.6398 288.775 20.0295 298.462 20.0295L298.688 20.0307C308.243 20.133 314.177 26.7171 314.177 36.5344C314.177 46.3667 308.149 52.9979 298.462 52.9979L298.236 52.9966C288.681 52.894 282.747 46.2899 282.747 36.5344ZM67.2116 36.5495C67.2116 26.6964 73.3022 20.0238 82.698 20.0238L82.8953 20.0248C91.2397 20.1079 97.7063 25.4716 97.7063 36.2377C97.7063 37.8175 96.8332 38.6699 95.2118 38.6699H75.9629V38.6906C75.9629 43.4137 78.7255 46.336 83.0933 46.3813L83.1968 46.3819C85.3379 46.3819 87.1255 45.7166 88.2896 44.4071C89.225 43.3261 89.9734 42.7233 91.3662 42.8065L94.6506 43.0352C96.4174 43.1599 97.3944 44.0745 96.8332 45.4048C94.8585 50.0611 89.9319 52.9921 83.0514 52.9921L82.8215 52.9909C73.1255 52.8931 67.2116 46.5937 67.2116 36.5495ZM135.148 12.7899H139.014L139.09 12.7905C140.663 12.8173 141.509 13.6883 141.509 15.2843V20.4396H145.022L145.097 20.4401C146.67 20.4669 147.516 21.3379 147.516 22.9339V24.5969L147.516 24.6724C147.489 26.2454 146.618 27.0914 145.022 27.0914H141.509V42.5571L141.509 42.6706C141.546 44.993 142.724 45.6541 144.42 45.6746L144.502 45.6751H144.71C146.04 45.6127 146.851 46.0492 147.121 47.3588L147.599 49.583C147.932 51.1628 147.308 52.2854 145.728 52.5556C145.043 52.6803 144.211 52.7636 143.296 52.8051L143.146 52.8108C136.807 53.0267 132.612 49.9292 132.653 43.7211V27.0914H130.783C129.161 27.0914 128.288 26.2183 128.288 24.5969V22.9339C128.288 21.3379 129.134 20.4669 130.707 20.4401L130.783 20.4396H132.653V15.2843C132.653 13.663 133.526 12.7899 135.148 12.7899ZM254.685 12.7563H258.302L258.377 12.7569C259.95 12.7838 260.796 13.6547 260.796 15.2508V26.0785H261.171C262.626 22.3161 265.868 20.0295 270.712 20.0295L270.867 20.0303C277.432 20.1005 281.77 24.6195 281.75 32.0444V49.8798C281.75 51.5012 280.877 52.3742 279.255 52.3742H275.389L275.313 52.3736C273.74 52.3467 272.894 51.4758 272.894 49.8798V33.6243C272.915 29.7569 270.861 27.4607 267.366 27.3898L267.199 27.3881C263.582 27.3881 261.067 29.7994 261.046 33.9152V49.8798L261.045 49.9553C261.019 51.5033 260.175 52.3472 258.627 52.3736L258.551 52.3742H254.685C253.064 52.3742 252.191 51.5011 252.191 49.8798V15.2508C252.191 13.6294 253.064 12.7563 254.685 12.7563ZM194.323 49.7533C197.067 46.8692 200.648 41.6121 200.703 38.5524L200.704 38.4805C200.704 37.2473 199.812 36.6223 198.825 35.931C198.507 35.7082 198.179 35.4784 197.868 35.2192C196.946 34.2266 196.308 32.9504 196.592 31.4615C197.514 27.4913 200.279 22.2448 203.54 22.0321C208.503 22.174 213.253 26.9242 213.253 33.3759C213.324 36.8499 212.26 40.6783 210.842 44.2232C209.07 43.7269 208.077 43.7979 207.085 43.9397C203.753 44.2233 201.413 48.0518 201.413 51.4549C201.413 53.9363 202.406 55.7088 203.54 56.6304H203.682L203.54 56.7014V56.9141C202.122 58.8283 199.995 61.097 197.939 62.7985C195.245 65.0673 192.054 66.698 188.155 66.6271C184.397 66.6271 181.207 64.8546 179.293 62.7277C180.144 61.3806 180.711 59.8208 180.782 58.4737C180.782 56.8431 180.427 55.8506 180.002 54.9289C180.853 53.7945 182.129 52.3056 183.121 51.3839C185.461 49.257 187.517 49.7533 189.644 51.1713C191.7 52.3765 192.693 51.5258 194.323 49.7533ZM59.8379 20.4396H63.6419L63.7173 20.4401C65.2904 20.4669 66.1364 21.3379 66.1364 22.9339V52.6803L66.1352 52.8711C66.0349 60.9144 59.5795 65.0071 50.5253 65.0071L50.1967 65.0052C43.3355 64.9256 38.8533 62.3509 36.8889 58.7086C36.0574 57.1496 36.9929 55.9647 38.7181 55.736L42.0857 55.2788C43.4784 55.0917 44.2268 55.6737 45.2038 56.7131C46.2679 57.8385 47.9966 58.6215 50.6082 58.6456L50.7332 58.6463C54.5788 58.6463 57.3851 56.9417 57.3851 52.5556V46.7144H57.0109C55.8468 49.3544 52.999 51.9112 47.9061 51.9112C40.7138 51.9112 34.9558 46.9639 34.9558 36.3417C34.9558 25.47 40.88 20.0238 47.8853 20.0238C53.2276 20.0238 55.826 23.2043 57.0109 25.8026H57.3434V22.9339C57.3434 21.3126 58.2165 20.4396 59.8379 20.4396ZM101.221 20.4401L101.297 20.4396H104.747C106.369 20.4396 107.242 21.3126 107.242 22.9339V26.0728H107.616C109.05 22.3519 112.48 20.0238 117.22 20.0238L117.375 20.0247C123.939 20.0954 128.237 24.6551 128.237 32.0388V49.8741L128.236 49.9495C128.21 51.4976 127.366 52.3415 125.818 52.3679L125.742 52.3686H121.876L121.8 52.3679C120.227 52.3411 119.381 51.4702 119.381 49.8741V33.6185C119.402 29.7106 117.261 27.3824 113.706 27.3824C110.131 27.3824 107.678 29.7938 107.657 33.9096V49.8741L107.657 49.9495C107.63 51.4976 106.787 52.3415 105.239 52.3679L105.163 52.3686H101.297L101.221 52.3679C99.6481 52.3411 98.8021 51.4701 98.8021 49.8741V22.9339C98.8022 21.3379 99.6481 20.4669 101.221 20.4401ZM222.25 20.4459L222.325 20.4452H226.067C227.688 20.4452 228.561 21.3183 228.561 22.9397V25.8083H228.956C230.141 23.2099 232.698 20.0295 238.04 20.0295L238.204 20.0304C245.138 20.1149 250.97 25.5614 250.97 36.4513C250.97 47.1359 245.295 52.8939 238.019 52.8939C232.864 52.8939 230.183 49.9213 228.956 47.2606H228.686V61.8532L228.685 61.9286C228.659 63.4766 227.815 64.3206 226.267 64.347L226.192 64.3477H222.325L222.25 64.347C220.677 64.3202 219.831 63.4492 219.831 61.8532V22.9397C219.831 21.3436 220.677 20.4727 222.25 20.4459ZM315.252 22.9397C315.252 21.3183 316.125 20.4452 317.747 20.4452H321.197C322.819 20.4452 323.692 21.3183 323.692 22.9397V26.0785H324.066C325.5 22.3577 328.93 20.0295 333.67 20.0295L333.825 20.0303C340.389 20.1011 344.687 24.6608 344.687 32.0444V49.8798C344.687 51.5012 343.814 52.3742 342.192 52.3742H338.326L338.25 52.3736C336.677 52.3468 335.831 51.4758 335.831 49.8798V33.6243C335.852 29.7773 333.777 27.4612 330.322 27.3898L330.157 27.3881C326.581 27.3881 324.128 29.7994 324.108 33.9152V49.8798L324.107 49.9553C324.08 51.5033 323.237 52.3472 321.688 52.3736L321.613 52.3742H317.747C316.125 52.3742 315.252 51.5011 315.252 49.8798V22.9397ZM25.0965 30.8451L25.0981 30.7499V30.6252C25.0981 28.047 23.4262 26.5362 20.499 26.4896L20.3585 26.4886C18.1759 26.4886 16.617 27.2161 15.64 28.3594C14.7253 29.4819 14.0185 30.1263 12.605 30.0015L9.34142 29.7314C7.57451 29.5859 6.63905 28.4217 7.40817 26.8211C9.44531 22.5806 13.9977 20.0238 20.4001 20.0238C27.5093 20.0238 33.9534 23.225 33.9534 30.833V49.8741C33.9534 51.4702 33.1074 52.3411 31.5343 52.3679L31.4589 52.3686H28.0498C26.4284 52.3686 25.5554 51.5787 25.5553 50.1444V47.9409H25.3059C23.7469 50.9134 20.6912 52.9714 15.9725 52.9714L15.8301 52.9707C9.8117 52.9211 5.37107 49.7208 5.37107 43.4509C5.37108 36.3209 11.046 34.2005 17.3652 33.6185C22.8287 33.0865 25.0291 32.8164 25.0965 30.8451Z" fill="white"/>
<path d="M50.7123 45.2594L50.6109 45.2587C46.331 45.2054 43.9981 41.7657 43.9981 36.3001C43.9981 30.8747 46.3263 27.0707 50.7123 27.0707L50.8129 27.0713C55.0528 27.1276 57.4267 30.7521 57.4267 36.3001L57.4248 36.5625C57.3495 42.0365 54.9071 45.2594 50.7123 45.2594Z" fill="white"/>
<path d="M25.1604 40.9564C25.1604 44.3031 22.3957 46.86 18.5086 46.86L18.3815 46.8591C15.7249 46.8201 13.8314 45.554 13.8314 43.1599C13.8314 40.6654 15.8893 39.439 19.0074 39.0024C20.9406 38.7322 24.1002 38.2749 25.1604 37.5681V40.9564Z" fill="white"/>
<path d="M83.0228 26.6361C86.7715 26.7201 89.3501 29.4374 89.3706 33.182H75.9629C76.15 29.5443 78.9147 26.6342 82.8434 26.6341L83.0228 26.6361Z" fill="white"/>
<path d="M235.213 45.8471L235.114 45.8463C230.98 45.7893 228.575 42.1774 228.501 36.6753L228.499 36.4097C228.499 30.7141 230.91 27.0763 235.213 27.0763L235.316 27.077C239.636 27.1358 241.927 30.9235 241.927 36.4097L241.926 36.6696C241.853 42.1006 239.49 45.8471 235.213 45.8471Z" fill="white"/>
<path d="M298.504 46.1381L298.399 46.1373C294.068 46.075 291.819 42.1269 291.749 36.7322L291.748 36.4721C291.748 30.9012 294.034 26.7853 298.504 26.7853L298.606 26.786C302.925 26.8496 305.176 30.9447 305.176 36.4721L305.175 36.7322C305.104 42.17 302.821 46.1381 298.504 46.1381Z" fill="white"/>
<path d="M361.506 26.6417C365.254 26.7257 367.833 29.4431 367.853 33.1877H354.446C354.633 29.55 357.397 26.6398 361.326 26.6398L361.506 26.6417Z" fill="white"/>
<path fill-rule="evenodd" clip-rule="evenodd" d="M181.916 23.8046C187.092 23.8046 189.573 24.0882 191.062 25.5771C192.763 27.2787 193.472 31.0362 193.472 36.2117C193.472 38.9767 193.118 40.9619 192.054 42.5217C190.069 45.3576 183.901 46.4211 176.67 46.6338C170.927 46.6338 169.083 46.0666 167.949 44.6486C166.531 43.0888 165.822 38.9768 165.609 34.2267C165.609 32.4819 165.678 30.1188 166.357 28.6252L166.389 28.5548C167.382 26.4279 168.729 25.7897 171.494 25.0098C174.33 24.1591 177.662 23.9464 180.711 23.8046H181.916ZM180.144 43.5862C178.229 43.4444 176.67 42.5228 176.67 41.3175C176.67 40.4581 177.457 40.5247 178.133 40.5819C178.293 40.5954 178.448 40.6085 178.584 40.6085C179.524 40.6449 180.053 40.6411 181.004 40.5237C181.637 40.4485 182.174 40.337 182.751 40.2173C182.917 40.1827 183.087 40.1475 183.263 40.1123C183.901 39.9705 184.185 40.4668 184.185 40.9631C184.254 41.8704 182.675 43.602 180.259 43.5883L180.144 43.5862ZM173.125 30.5398C174.8 30.4778 175.498 32.6971 175.693 34.3927L175.731 34.789L175.733 34.8161L175.734 34.8345L175.736 34.8632C175.738 34.896 175.74 34.9284 175.742 34.9604C175.744 35 175.746 35.039 175.748 35.0773C175.819 36.708 175.393 38.9766 173.266 38.8348C171.707 38.8348 170.927 36.8497 170.785 35.0064C170.572 32.4541 171.494 30.6817 173.125 30.5398ZM183.759 33.7243C183.548 31.3876 184.399 29.4062 186.028 29.2645C188.013 29.3354 188.722 32.1003 188.793 33.731C188.864 34.9363 188.651 36.3543 187.942 37.0633C187.446 37.6304 186.17 37.7722 185.461 37.276C184.422 36.722 183.925 35.0859 183.77 33.821L183.767 33.8186C183.752 33.8049 183.737 33.7915 183.722 33.7781C183.734 33.7605 183.746 33.7426 183.759 33.7243Z" fill="white"/>
<path d="M180.142 8.25291C180.116 8.80069 179.632 9.27047 179.08 9.27047L179.033 9.26929C178.549 9.24377 178.017 8.82517 178.017 8.20701C178.017 8.18686 178.017 8.16678 178.019 8.14682C178.045 7.71863 178.351 7.34063 178.749 7.20099C178.854 7.16399 178.966 7.14355 179.08 7.14355L179.133 7.14499C179.678 7.17466 180.144 7.65757 180.144 8.20701L180.142 8.25291Z" fill="white"/>
</svg>
