<svg width="4634" height="1092" viewBox="0 0 4634 1092" fill="none" xmlns="http://www.w3.org/2000/svg">
<g clip-path="url(#clip0_673_2)">
<path d="M1400.21 368.32H1481.7C1491.23 368.32 1498.96 376.05 1498.96 385.58V794.77C1498.96 831.23 1500.91 872.07 1503.65 899.64C1504.66 909.81 1496.7 918.63 1486.47 918.63H1414.95C1406.19 918.63 1398.81 912.07 1397.8 903.37C1397.73 902.8 1397.67 902.23 1397.6 901.65C1396 887.99 1379.96 881.69 1369.35 890.43C1343.49 911.72 1305.98 924.9 1268.48 924.9C1172.06 924.9 1104.64 837.89 1104.64 714.81C1104.64 591.73 1172.06 504.72 1268.48 504.72C1298.75 504.72 1330.89 516.28 1355.38 534.25C1366.82 542.65 1382.93 534.6 1382.93 520.41V385.58C1382.93 376.05 1390.66 368.32 1400.19 368.32H1400.21ZM1382.95 702.27C1382.95 635.64 1353.16 596.44 1306.13 596.44C1254.39 596.44 1220.68 642.69 1220.68 714.81C1220.68 786.93 1254.39 835.53 1306.13 835.53C1352.38 835.53 1382.95 794.77 1382.95 725.78V702.26V702.27Z" fill="black"/>
<path d="M1770.63 905.09C1770.59 904.91 1770.55 904.72 1770.51 904.53C1767.83 892.37 1753.48 886.86 1743.49 894.3C1716.93 914.08 1685.84 925.68 1651.37 925.68C1568.27 925.68 1514.97 871.59 1514.97 801.04C1514.97 724.22 1582.39 684.24 1690.57 672.48L1740.44 666.47C1749.11 665.43 1755.64 658.07 1755.64 649.33V645.83C1755.64 616.82 1733.69 596.44 1705.47 596.44C1682.62 596.44 1660.93 606.23 1650.76 627.79C1647.55 634.58 1640.52 638.7 1633.07 637.67L1553.42 626.61C1542.54 625.1 1535.68 613.89 1539.56 603.62C1561.4 545.83 1625.36 504.73 1707.04 504.73C1804.25 504.73 1872.45 566.66 1872.45 660.73V794.78C1872.45 846.79 1873.45 873.76 1876.66 899.3C1877.95 909.58 1869.89 918.64 1859.53 918.64H1787.51C1779.41 918.64 1772.4 913.01 1770.65 905.1L1770.63 905.09ZM1755.63 751.65V750.73C1755.63 740.38 1746.59 732.36 1736.31 733.59L1696.84 738.33C1656.86 743.03 1630.99 761.85 1630.99 791.64C1630.99 816.73 1649.02 835.54 1679.59 835.54C1725.06 835.54 1755.63 804.97 1755.63 751.66V751.65Z" fill="black"/>
<path d="M1907.84 595.65H1885.93C1876.4 595.65 1868.67 587.92 1868.67 578.39V537.17C1868.67 528.82 1874.65 521.66 1882.87 520.18L1914.84 514.41C1921.16 513.27 1926.32 508.72 1928.24 502.59L1955.03 417.25C1957.29 410.05 1963.96 405.16 1971.5 405.16H2025.44C2034.97 405.16 2042.7 412.89 2042.7 422.42V495.29C2042.7 504.82 2050.43 512.55 2059.96 512.55H2106.18C2115.71 512.55 2123.44 520.28 2123.44 529.81V581.51C2123.44 591.04 2115.71 598.77 2106.18 598.77H2059.96C2050.43 598.77 2042.7 606.5 2042.7 616.03V786.12C2042.7 816.69 2056.03 837.07 2089.73 837.07C2097.83 837.07 2105.55 836.33 2118.02 834.07C2128.6 832.16 2138.33 840.31 2138.33 851.06V905.07C2138.33 913.56 2132.17 920.79 2123.79 922.12C2107.83 924.66 2088.56 926.43 2073.26 926.43C1974.49 926.43 1925.1 862.93 1925.1 787.68V612.88C1925.1 603.35 1917.37 595.62 1907.84 595.62V595.65Z" fill="black"/>
<path d="M2397.99 905.09C2397.95 904.91 2397.91 904.72 2397.87 904.53C2395.19 892.37 2380.84 886.86 2370.85 894.3C2344.29 914.08 2313.2 925.68 2278.73 925.68C2195.63 925.68 2142.33 871.59 2142.33 801.04C2142.33 724.22 2209.75 684.24 2317.93 672.48L2367.8 666.47C2376.47 665.43 2383 658.07 2383 649.33V645.83C2383 616.82 2361.05 596.44 2332.83 596.44C2309.98 596.44 2288.29 606.23 2278.12 627.79C2274.91 634.58 2267.88 638.7 2260.43 637.67L2180.78 626.61C2169.9 625.1 2163.04 613.89 2166.92 603.62C2188.76 545.83 2252.72 504.73 2334.4 504.73C2431.61 504.73 2499.81 566.66 2499.81 660.73V794.78C2499.81 846.79 2500.81 873.76 2504.02 899.3C2505.31 909.58 2497.25 918.64 2486.89 918.64H2414.87C2406.77 918.64 2399.76 913.01 2398.01 905.1L2397.99 905.09ZM2382.99 751.65V750.73C2382.99 740.38 2373.95 732.36 2363.67 733.59L2324.2 738.33C2284.22 743.03 2258.35 761.85 2258.35 791.64C2258.35 816.73 2276.38 835.54 2306.95 835.54C2352.42 835.54 2382.99 804.97 2382.99 751.66V751.65Z" fill="black"/>
<path d="M2649.98 520.29C2649.98 534.51 2666.13 542.53 2677.58 534.1C2701.86 516.22 2733.7 504.72 2764.43 504.72C2860.07 504.72 2929.05 591.73 2929.05 714.81C2929.05 837.89 2860.06 924.9 2764.43 924.9C2727 924.9 2689.17 911.77 2663.38 890.57C2652.85 881.91 2636.94 887.97 2635.14 901.48C2635.04 902.23 2634.94 902.96 2634.85 903.68C2633.7 912.24 2626.38 918.63 2617.74 918.63H2546.05C2535.73 918.63 2527.74 909.65 2528.9 899.39C2532.01 871.83 2533.95 831.12 2533.95 794.77V385.58C2533.95 376.05 2541.68 368.32 2551.21 368.32H2632.7C2642.23 368.32 2649.96 376.05 2649.96 385.58V520.29H2649.98ZM2649.98 725.78C2649.98 794.77 2680.55 835.53 2728.37 835.53C2778.54 835.53 2811.47 790.06 2811.47 714.81C2811.47 639.56 2778.55 596.44 2728.37 596.44C2678.19 596.44 2649.98 635.64 2649.98 702.27V725.79V725.78Z" fill="black"/>
<path d="M3206.59 905.96C3206.36 905.1 3206.13 904.25 3205.91 903.39C3202.83 891.5 3188.69 886.57 3178.86 893.94C3153.42 912.99 3122.02 924.11 3086.45 924.11C3004.14 924.11 2947.7 863.75 2947.7 770.46V529.81C2947.7 520.28 2955.43 512.55 2964.96 512.55H3048.02C3057.55 512.55 3065.28 520.28 3065.28 529.81V754.78C3065.28 806.52 3087.23 833.95 3125.64 833.95C3167.19 833.95 3195.41 801.81 3195.41 740.66V529.8C3195.41 520.27 3203.14 512.54 3212.67 512.54H3294.16C3303.69 512.54 3311.42 520.27 3311.42 529.8V794.75C3311.42 846.61 3312.42 873.57 3316 899.05C3317.45 909.4 3309.34 918.61 3298.89 918.61H3223.22C3215.46 918.61 3208.6 913.44 3206.58 905.94L3206.59 905.96Z" fill="black"/>
<path d="M3627.86 368.32H3709.35C3718.88 368.32 3726.61 376.05 3726.61 385.58V794.77C3726.61 831.23 3728.56 872.07 3731.3 899.64C3732.31 909.81 3724.35 918.63 3714.12 918.63H3642.6C3633.84 918.63 3626.46 912.07 3625.45 903.37C3625.38 902.8 3625.32 902.23 3625.25 901.65C3623.65 887.99 3607.61 881.69 3597 890.43C3571.14 911.72 3533.63 924.9 3496.13 924.9C3399.71 924.9 3332.29 837.89 3332.29 714.81C3332.29 591.73 3399.71 504.72 3496.13 504.72C3526.4 504.72 3558.54 516.28 3583.03 534.25C3594.47 542.65 3610.58 534.6 3610.58 520.41V385.58C3610.58 376.05 3618.31 368.32 3627.84 368.32H3627.86ZM3610.6 702.27C3610.6 635.64 3580.81 596.44 3533.78 596.44C3482.04 596.44 3448.33 642.69 3448.33 714.81C3448.33 786.93 3482.04 835.53 3533.78 835.53C3580.03 835.53 3610.6 794.77 3610.6 725.78V702.26V702.27Z" fill="black"/>
<path d="M4036.56 368.32H4118.05C4127.58 368.32 4135.31 376.05 4135.31 385.58V794.77C4135.31 831.23 4137.26 872.07 4140 899.64C4141.01 909.81 4133.05 918.63 4122.82 918.63H4051.3C4042.54 918.63 4035.16 912.07 4034.15 903.37C4034.08 902.8 4034.02 902.23 4033.95 901.65C4032.35 887.99 4016.31 881.69 4005.7 890.43C3979.84 911.72 3942.33 924.9 3904.83 924.9C3808.41 924.9 3740.99 837.89 3740.99 714.81C3740.99 591.73 3808.41 504.72 3904.83 504.72C3935.1 504.72 3967.24 516.28 3991.73 534.25C4003.17 542.65 4019.28 534.6 4019.28 520.41V385.58C4019.28 376.05 4027.01 368.32 4036.54 368.32H4036.56ZM4019.3 702.27C4019.3 635.64 3989.51 596.44 3942.48 596.44C3890.74 596.44 3857.03 642.69 3857.03 714.81C3857.03 786.93 3890.74 835.53 3942.48 835.53C3988.73 835.53 4019.3 794.77 4019.3 725.78V702.26V702.27Z" fill="black"/>
<path d="M4164.99 512.56H4246.68C4253.86 512.56 4260.29 517.01 4262.83 523.72L4340.19 728.57C4345.84 743.54 4367.06 743.43 4372.55 728.4L4447.31 523.89C4449.8 517.08 4456.28 512.55 4463.52 512.55H4545.39C4557.53 512.55 4565.87 524.74 4561.49 536.05L4397.36 959.38C4371.49 1024.44 4337.78 1091.08 4233.52 1091.08C4212.76 1091.08 4186.64 1087.86 4165.36 1081.86C4157.91 1079.76 4152.77 1072.97 4152.77 1065.23V1008.43C4152.77 996.95 4163.76 988.7 4174.8 991.84C4203.94 1000.14 4216.77 1001.71 4229.59 1001.71C4267.82 1001.71 4284.31 968.32 4298.37 933.23C4298.51 932.89 4298.63 932.55 4298.74 932.21L4303.27 918.62H4302.49L4148.95 536.25C4144.4 524.91 4152.75 512.55 4164.97 512.55L4164.99 512.56Z" fill="black"/>
<path fill-rule="evenodd" clip-rule="evenodd" d="M344.929 999.91C326.139 1000.37 307.329 999.06 288.839 995.7C279.249 993.96 269.719 991.68 263.069 988.83C243.689 980.5 226.099 965.6 216.149 946.86C203.923 923.841 209.252 903.617 215.507 879.882L215.589 879.57C216.679 875.43 217.699 870.78 216.179 866.54C214.739 862.53 211.319 859.38 207.639 857.4C202.276 854.517 196.308 852.356 190.332 850.191L190.33 850.191C185.609 848.481 180.884 846.77 176.449 844.7C98.7792 808.49 33.2692 752.93 9.18923 667.55C-24.1508 549.34 35.8492 420.44 144.959 366.7C149.799 364.32 152.619 359.21 152.209 353.83C144.719 255.26 165.579 168.2 214.399 94.65C235.729 62.51 258.409 39.14 283.709 23.22C307.879 8.03 334.249 0 359.979 0C380.139 0 401.029 5.03 418.259 15.73C424.604 19.6681 430.206 25.3917 435.485 30.7871L435.487 30.7888L435.504 30.8061L435.518 30.8202C436.193 31.5104 436.863 32.1951 437.529 32.87C439.595 34.9629 441.426 37.2663 443.256 39.5684C445.422 42.2927 447.587 45.0161 450.139 47.39C455.449 52.3242 461.31 53.3753 467.98 54.5713C468.771 54.7132 469.574 54.8572 470.389 55.01C476.519 56.16 482.849 57.35 489.139 59.28C537.789 74.22 580.569 114.05 603.559 165.82C622.329 208.06 629.139 257.9 623.809 313.96C621.299 340.37 616.309 367.81 607.649 402.93C606.699 406.76 605.919 411.55 605.119 416.72C604.429 421.19 607.909 425.24 612.429 425.18C649.429 424.69 687.169 428.11 722.269 440.37C751.589 450.62 778.759 465.9 802.659 485.77C826.209 505.36 846.519 529.14 861.179 556.09C874.279 580.18 882.729 606.87 884.499 634.31C884.749 638.189 884.79 642.096 884.83 645.999V646.002V646.003V646.005V646.007V646.008V646.01V646.012V646.013V646.015V646.017V646.018V646.02C884.866 649.445 884.901 652.865 885.079 656.26C885.399 662.41 887.289 668.23 893.539 670.83C898.091 672.723 902.958 672.44 907.784 672.16C909.51 672.06 911.23 671.96 912.929 671.96C954.059 671.96 973.319 693.9 985.629 712.96C1017.22 781.32 976.909 864.42 953.709 889.32C925.399 919.72 885.289 940.66 843.319 940.66C829.927 940.66 817.613 937.23 805.362 933.818C793.353 930.473 781.405 927.144 768.559 927.08C748.757 926.986 731.221 936.952 713.919 946.784C705.42 951.614 696.977 956.412 688.349 959.97C669.399 967.79 648.939 974.29 626.589 979.59C599.709 985.96 572.279 989.78 544.709 991.45C478.239 995.47 411.649 998.29 344.929 999.91ZM424.179 940.3C480.789 939.09 537.179 932.47 592.349 919.72C652.639 905.78 719.049 882.77 751.829 845.77C809.189 781.04 854.529 675.92 812.189 592.77C787.659 544.6 740.549 505.95 690.279 490.38C648.739 477.51 603.249 479.19 562.239 493.28C541.319 500.47 521.459 510.89 503.859 524.32C500.887 526.59 497.34 529.002 493.557 531.574C478.874 541.559 460.637 553.961 458.649 569.84C457.229 581.19 465.699 593.34 476.619 596.46C487.674 599.617 496.758 593.173 505.457 587.001L505.458 587L505.46 586.999L505.461 586.998L505.466 586.995C508.087 585.135 510.674 583.299 513.269 581.76C541.019 565.3 573.049 556.04 605.319 555.39C654.629 554.4 712.929 571.78 737.049 617.81C759.099 659.89 752.489 713.82 727.459 753.1C690.429 811.2 622.989 836.32 560.739 857.3C492.971 880.151 359.874 889.846 329.743 892.041L329.74 892.042H329.739L329.735 892.042C327.577 892.199 325.948 892.318 324.909 892.4C309.369 893.64 278.019 896.34 278.019 919.16C278.019 941.98 323.179 941.51 323.179 941.51C323.179 941.51 383.199 941.17 424.169 940.29L424.179 940.3ZM269.589 528.34C279.169 531.93 286.259 540.66 288.619 550.63L288.629 550.64C290.419 558.25 290.279 566.51 284.609 571.99L284.519 572.08C281.374 575.027 277.581 576.612 273.622 578.267C270.984 579.369 268.272 580.503 265.629 582.09C262.49 583.725 259.486 586.391 256.458 589.077C251.876 593.142 247.242 597.254 242.009 597.91C233.079 598.76 226.989 588.93 225.099 581.14C219.099 556.02 240.449 517.67 269.589 528.34ZM566.619 290.34C567.029 256.68 562.359 223.44 550.849 192.27C536.349 152.99 503.479 117.63 461.889 112.73C458.189 112.292 454.456 112.096 450.724 111.901C444.574 111.579 438.431 111.257 432.449 109.85C420.526 107.051 414.58 97.9788 408.498 88.7C405.78 84.5543 403.036 80.3673 399.719 76.68C385.979 61.4 366.549 54.45 346.059 58.92C323.689 63.8 305.239 79.44 289.689 96.25C253.149 135.74 227.839 185.13 215.539 237.41C209.389 263.57 206.459 290.5 206.999 317.37C207.299 332.41 208.299 347.77 211.489 362.49C212.025 364.967 212.804 367.544 213.598 370.172C216.139 378.581 218.84 387.52 214.269 395.42C209.874 403.016 199.809 406.602 190.72 409.84C187.172 411.104 183.774 412.315 180.919 413.69C166.529 420.62 152.879 429.09 140.299 438.93C87.3492 480.35 54.7392 547.84 59.0992 614.92C63.4592 682 106.309 746.13 168.189 772.39C190.899 782.03 215.819 786.11 240.429 784.95C274.869 783.33 314.749 770.37 341.059 747.69C348.129 741.59 354.459 734.52 358.829 726.22C361.089 721.91 363.589 716.67 362.989 711.69C362.609 708.51 360.929 705.42 358.209 703.73C355.569 702.09 352.239 701.89 349.189 702.53C346.133 703.17 343.155 704.505 340.238 705.812C339.147 706.301 338.065 706.786 336.989 707.23C332.898 708.922 328.844 710.699 324.791 712.476C319.213 714.921 313.635 717.366 307.959 719.59C297.059 723.86 285.649 727.4 273.869 727.92C197.409 731.29 130.209 672.29 131.139 593.86C131.689 547.62 157.239 502.61 199.549 482.42C243.039 461.66 298.949 471.43 324.919 514.73C326.451 517.281 327.864 519.919 329.276 522.556L329.277 522.558C333.988 531.352 338.692 540.134 347.769 545.65C353.589 549.18 360.869 549.95 366.909 546.81C380.579 539.69 377.089 520.04 372.689 505.52C345.329 415.21 346.849 284.46 415.269 210.98C425.979 199.48 440.669 190.76 456.389 190.71C478.749 190.64 498.169 208.38 506.549 229.12C514.929 249.85 514.379 273.02 512.509 295.31C507.849 351.06 495.729 406.19 476.589 458.76L476.365 459.375L476.208 459.805C471.947 471.473 467.525 483.585 471.729 496.13C473.989 502.87 479.399 508.35 486.359 509.78C500.359 512.66 510.569 498.27 516.579 485.69C544.319 427.67 565.769 358.13 566.599 290.34H566.619ZM269.449 230.42C252.369 279.65 250.719 338.84 277.989 385.02V385.01C279.839 388.16 284.659 386.75 284.529 383.1C284.459 373.85 284.439 364.6 285.069 355.37C286.619 332.19 289.359 308.8 293.949 286.01C295.829 276.68 298.219 267.46 301.069 258.38C308.309 235.3 318.519 213.23 330.579 192.28C336.629 181.77 343.149 171.52 349.999 161.51C352.042 158.526 354.153 155.584 356.263 152.643L356.264 152.641L356.265 152.64L356.266 152.639C357.698 150.643 359.129 148.648 360.539 146.64C364.159 141.48 367.169 135.63 362.839 129.1C360.739 125.93 357.189 124.01 353.399 123.74C337.729 122.7 322.199 135.86 313.129 147.48C304.724 158.262 297.851 170.863 291.258 182.95C290.667 184.035 290.077 185.115 289.489 186.19C281.719 200.4 274.759 215.1 269.449 230.42ZM817.199 828.99C825.529 773.9 891.529 705.23 930.709 738.38C941.479 747.49 946.589 761.67 945.129 775.7C940.829 817.13 913.999 862.3 875.469 876.38C844.609 887.66 812.289 861.48 817.199 828.99Z" fill="black"/>
<path d="M4611.76 752.35C4559.26 715.05 4484 807.89 4479.41 877.66C4476.7 918.81 4519.89 948.13 4557.29 930.76C4603.99 909.07 4632.75 849.75 4633.74 797.5C4634.08 779.8 4626.19 762.61 4611.76 752.35Z" fill="black"/>
</g>
<defs>
<clipPath id="clip0_673_2">
<rect width="4633.76" height="1091.09" fill="white"/>
</clipPath>
</defs>
</svg>
