<svg width="114" height="40" viewBox="0 0 114 40" fill="none" xmlns="http://www.w3.org/2000/svg">
<path d="M40 20C40 31.0457 31.0457 40 20 40C8.9543 40 0 31.0457 0 20C0 8.9543 8.9543 0 20 0C31.0457 0 40 8.9543 40 20Z" fill="black"/>
<path d="M102.897 29.19V15.6469H100.214V10.4206H102.897V5.01875H109.372V10.4206H113.627V15.6469H109.372V28.1262C109.372 28.7737 109.526 29.2362 109.834 29.5138C110.143 29.7913 110.667 29.93 111.407 29.93H113.627V35H109.326C107.26 35 105.672 34.6783 104.562 33.7225C103.452 32.7667 102.897 31.2558 102.897 29.19Z" fill="black"/>
<path fill-rule="evenodd" clip-rule="evenodd" d="M67.779 31.965C67.0743 32.9825 65.4908 33.8612 64.1485 34.6012C62.8397 35.3412 61.2793 35.7112 59.4672 35.7112C57.1518 35.7112 55.1383 35.1408 53.4269 34C51.7154 32.8592 50.3899 31.3329 49.4503 29.4212C48.5443 27.5096 48.0912 25.3975 48.0912 23.085C48.0912 20.7417 48.561 18.6142 49.5007 16.7025C50.4403 14.7908 51.749 13.2646 53.4269 12.1237C55.1383 10.9829 57.135 10.4125 59.4169 10.4125C61.2625 10.4125 62.8397 10.7825 64.1485 11.5225C65.4908 12.2625 67.0743 13.1412 67.779 14.1587V1.39375H74.2661V35H67.779V31.965ZM60.9324 29.5703C64.7293 29.5703 67.8074 26.4923 67.8074 22.6953C67.8074 18.8984 64.7293 15.8203 60.9324 15.8203C57.1354 15.8203 54.0574 18.8984 54.0574 22.6953C54.0574 26.4923 57.1354 29.5703 60.9324 29.5703Z" fill="black"/>
<path fill-rule="evenodd" clip-rule="evenodd" d="M88.0553 35C94.851 35 100.36 29.491 100.36 22.6953C100.36 15.8996 94.851 10.3906 88.0553 10.3906C81.2596 10.3906 75.7506 15.8996 75.7506 22.6953C75.7506 29.491 81.2596 35 88.0553 35ZM88.0553 29.5703C91.8522 29.5703 94.9303 26.4923 94.9303 22.6953C94.9303 18.8984 91.8522 15.8203 88.0553 15.8203C84.2583 15.8203 81.1803 18.8984 81.1803 22.6953C81.1803 26.4923 84.2583 29.5703 88.0553 29.5703Z" fill="black"/>
</svg>
