<svg width="169" height="40" viewBox="0 0 169 40" fill="none" xmlns="http://www.w3.org/2000/svg">
<g clip-path="url(#clip0_627_2)">
<path d="M29.8667 1.06667H10.0445C4.75557 1.06667 0.444458 5.37778 0.444458 10.6667V28.7111C0.444458 30.5333 1.33335 32.2667 2.84446 33.3333L9.91113 38.2667C10.9778 38.9778 12.4 38.2667 12.4 36.9778V29.5111C12.4 28.2222 13.4222 27.2 14.7111 27.2H19.2445C20.8 27.2 21.7333 25.4222 20.7556 24.1333L13.9556 15.0222C12.4445 13.0222 13.8667 10.1333 16.4 10.1333H22.8889C27.2889 10.1333 30.8445 6.57778 30.8445 2.17778V2.04444C30.8445 1.51111 30.4 1.06667 29.8667 1.06667ZM7.64446 18.8C6.40001 18.8 5.42224 17.7778 5.42224 16.5778C5.42224 15.3778 6.44446 14.3556 7.64446 14.3556C8.84446 14.3556 9.86668 15.3778 9.86668 16.5778C9.86668 17.7778 8.84446 18.8 7.64446 18.8Z" fill="black"/>
<path d="M21.4667 14.3111C20.2222 14.3111 19.2444 15.3333 19.2444 16.5333C19.2444 17.7333 20.2667 18.7556 21.4667 18.7556C22.6667 18.7556 23.6889 17.7333 23.6889 16.5333C23.6889 15.3333 22.6667 14.3111 21.4667 14.3111Z" fill="black"/>
<path d="M168.578 25.0667C168.578 18.9778 164.311 14.4444 158.533 14.4444C152.756 14.4444 151.244 16.4 149.467 19.4222C147.733 16.4444 144.4 14.4444 140.622 14.4444C135.289 14.4444 131.156 18.1333 130.311 23.1556V15.0222H124.356V16.9333C123.067 15.4222 121.111 14.4889 118.444 14.4889C115.778 14.4889 111.511 16.8444 109.956 20.3556V16.9333H106.267V15.0667C106.267 12.7111 107.733 12.0444 109.956 12.2667V6.48889C103.511 6.08889 100.444 9.37778 100.356 14.8444V16.9778H93.6444V11.0222L87.6889 12.8444V17.0222H84.5333V20.2222C83.6 16.5333 80.7111 14.5778 77.4667 14.5778C74.2222 14.5778 72.8889 15.5556 71.8222 17.0222V15.1111H65.8666V23.2889C65.0222 18.2222 60.7111 14.5333 55.5555 14.5333C50.4 14.5333 47.4222 17.1556 45.8666 21.0222V16.9778H42.1778V15.1111C42.1778 12.7556 43.6444 12.0889 45.8666 12.3111V6.53333C39.2889 6.13333 36.2666 9.51111 36.2666 15.1556V17.0222H33.6V22.8H36.2666V35.2445H42.2222V22.8H45.3778C45.2 23.5556 45.1111 24.3556 45.1111 25.2C45.1111 31.2 49.7778 35.8222 55.6 35.8222C61.4222 35.8222 65.0666 32.1333 65.9111 27.0667V35.2445H71.8666V24.2667C71.8666 21.4222 73.3778 20.1333 75.5555 20.1333C77.7333 20.1333 78.9778 21.2889 78.9778 23.7778V35.2445H84.9333V22.8889C84.9333 22.8889 84.9333 22.8444 84.9333 22.8H87.7778V28.0444C87.7778 33.6889 90.0444 36.0445 97.7778 35.2445V29.7778C95.1555 29.9556 93.6889 29.7778 93.6889 28.0444V22.8H100.4V35.2445H106.356V22.8H109.289C109.156 23.5556 109.067 24.3556 109.067 25.2C109.067 31.2 113.333 35.8222 118.533 35.8222C123.733 35.8222 123.111 34.8889 124.444 33.3778V35.2889H130.4V27.1556C131.244 32.1778 135.378 35.8667 140.711 35.8667C146.044 35.8667 147.822 33.9111 149.556 30.8889C151.333 33.9111 154.667 35.8667 159.067 35.8667C163.467 35.8667 165.733 34.4444 167.689 31.7333L162.933 28.9333C162.133 29.8222 160.756 30.4444 159.156 30.4444C157.556 30.4444 155.156 29.7333 154.4 27.6444H168.444C168.622 26.8889 168.667 26.0889 168.667 25.2444L168.578 25.0667ZM55.5555 29.8222C52.9778 29.8222 51.0222 27.9111 51.0222 25.0667C51.0222 22.2222 53.0222 20.3111 55.5555 20.3111C58.0889 20.3111 60.0889 22.2222 60.0889 25.0667C60.0889 27.9111 58.0889 29.8222 55.5555 29.8222ZM119.689 30C116.978 30 114.978 28.0889 114.978 25.0667C114.978 22.0444 116.978 20.1333 119.689 20.1333C122.4 20.1333 124.4 22.0444 124.4 25.0667C124.4 28.0889 122.4 30 119.689 30ZM144.4 27.4667C143.778 28.8889 142.311 29.7333 140.578 29.7333C138 29.7333 136.089 27.8222 136.089 25.0667C136.089 22.3111 138 20.4 140.578 20.4C143.156 20.4 143.733 21.2444 144.4 22.6667L149.289 19.7778C148.489 21.3333 148 23.1111 148 25.0667C148 27.0222 148.444 28.7556 149.244 30.3111L144.4 27.5111V27.4667ZM154.178 22.9778C154.711 20.9333 156.222 19.7778 158.489 19.7778C160.756 19.7778 162.044 20.6222 162.667 22.9778H154.178Z" fill="black"/>
</g>
<defs>
<clipPath id="clip0_627_2">
<rect width="168.889" height="40" fill="white"/>
</clipPath>
</defs>
</svg>
