<svg width="202" height="40" viewBox="0 0 202 40" fill="none" xmlns="http://www.w3.org/2000/svg"><g clip-path="url(#clip0_1128_11601)"><path fill-rule="evenodd" clip-rule="evenodd" d="M20.2537 1.62511H19.5132C14.8706 1.62511 11.5521 1.62861 9.03001 1.96759C6.55498 2.30044 5.09162 2.92964 4.016 4.00526C2.94038 5.08088 2.31118 6.54394 1.97833 9.01927C1.63965 11.5413 1.63585 14.8599 1.63585 19.5025V20.2429C1.63585 24.8855 1.63936 28.2041 1.97833 30.7261C2.31118 33.2012 2.94038 34.6642 4.016 35.7401C5.09162 36.8158 6.55468 37.4447 9.03001 37.7775C11.5521 38.1165 14.8706 38.12 19.5132 38.12H20.2537C24.8963 38.12 28.2148 38.1165 30.7369 37.7775C33.2119 37.4447 34.675 36.8158 35.7509 35.7401C36.8265 34.6642 37.4554 33.2012 37.7883 30.7261C38.1272 28.2041 38.1307 24.8855 38.1307 20.2429V19.5025C38.1307 14.8599 38.1272 11.5413 37.7883 9.01927C37.4554 6.54423 36.8265 5.08088 35.7509 4.00526C34.675 2.92964 33.2119 2.30044 30.7369 1.96759C28.2148 1.6289 24.8963 1.62511 20.2537 1.62511ZM2.8668 2.85606C0.0107422 5.71212 0.0107422 10.3089 0.0107422 19.5025V20.2429C0.0107422 29.4365 0.0107422 34.0333 2.8668 36.8893C5.72286 39.7454 10.3196 39.7454 19.5132 39.7454H20.2537C29.4472 39.7454 34.044 39.7454 36.9001 36.8893C39.7561 34.0333 39.7561 29.4365 39.7561 20.2429V19.5025C39.7561 10.3089 39.7561 5.71212 36.9001 2.85606C34.044 0 29.4472 0 20.2537 0H19.5132C10.3196 0 5.72286 0 2.8668 2.85606Z" fill="#999999"></path><path d="M27.3571 7.64349C24.7346 7.64349 22.6015 9.77692 22.6015 12.3997V14.4377H17.1661V12.3997C17.1661 9.77692 15.0327 7.64349 12.4102 7.64349C9.78773 7.64349 7.6543 9.77692 7.6543 12.3997C7.6543 15.0219 9.78773 17.1553 12.4105 17.1553H14.4485V22.5907H12.4105C9.78773 22.5907 7.6543 24.7238 7.6543 27.3463C7.6543 29.9691 9.78773 32.1022 12.4105 32.1022C15.0327 32.1022 17.1661 29.9691 17.1661 27.3466V25.3083H22.6015V27.3463C22.6015 29.9691 24.7346 32.1022 27.3571 32.1022C29.9799 32.1022 32.113 29.9691 32.113 27.3466C32.113 24.7238 29.9799 22.5904 27.3571 22.5904H25.3191V17.1556H27.3571C29.9799 17.1556 32.113 15.0222 32.113 12.3997C32.113 9.77721 29.9799 7.64349 27.3571 7.64349ZM25.3191 14.4377V12.3997C25.3187 12.132 25.3712 11.8667 25.4735 11.6193C25.5757 11.3718 25.7258 11.147 25.9151 10.9576C26.1044 10.7682 26.3293 10.6181 26.5767 10.5157C26.8241 10.4134 27.0893 10.3609 27.3571 10.3612C27.6249 10.3608 27.8901 10.4132 28.1375 10.5155C28.385 10.6178 28.6099 10.768 28.7992 10.9573C28.9885 11.1467 29.1387 11.3715 29.241 11.619C29.3433 11.8664 29.3957 12.1316 29.3953 12.3994C29.3957 12.6672 29.3433 12.9324 29.241 13.1798C29.1387 13.4273 28.9886 13.6521 28.7993 13.8414C28.61 14.0308 28.3852 14.1809 28.1377 14.2832C27.8903 14.3855 27.6251 14.438 27.3574 14.4377H25.3191ZM12.4102 14.4377C12.1425 14.438 11.8774 14.3855 11.63 14.2832C11.3826 14.1809 11.1578 14.0308 10.9685 13.8415C10.7792 13.6521 10.6291 13.4274 10.5268 13.18C10.4245 12.9326 10.372 12.6674 10.3723 12.3997C10.3719 12.132 10.4243 11.8667 10.5266 11.6193C10.6289 11.3718 10.779 11.147 10.9683 10.9576C11.1576 10.7682 11.3824 10.6181 11.6298 10.5157C11.8773 10.4134 12.1425 10.3609 12.4102 10.3612C12.678 10.3608 12.9432 10.4133 13.1906 10.5156C13.4381 10.6179 13.6629 10.7681 13.8523 10.9574C14.0416 11.1467 14.1917 11.3716 14.294 11.619C14.3963 11.8665 14.4488 12.1317 14.4485 12.3994V14.4377H12.4102ZM17.1661 22.5907V17.1553H22.6015V22.5907H17.1661ZM27.3571 29.3842C27.0894 29.3846 26.8242 29.3321 26.5768 29.2298C26.3294 29.1275 26.1046 28.9774 25.9153 28.7881C25.7259 28.5988 25.5758 28.374 25.4736 28.1266C25.3713 27.8792 25.3188 27.614 25.3191 27.3463V25.3083H27.3571C27.6248 25.3079 27.89 25.3604 28.1375 25.4627C28.3849 25.5649 28.6098 25.715 28.7991 25.9044C28.9884 26.0937 29.1386 26.3185 29.2409 26.5659C29.3432 26.8133 29.3957 27.0785 29.3953 27.3463C29.3957 27.614 29.3433 27.8792 29.241 28.1267C29.1387 28.3741 28.9886 28.599 28.7993 28.7883C28.61 28.9776 28.3852 29.1278 28.1377 29.2301C27.8903 29.3324 27.6248 29.3846 27.3571 29.3842ZM12.4102 29.3842C12.1425 29.3846 11.8773 29.3321 11.6299 29.2298C11.3825 29.1275 11.1577 28.9774 10.9684 28.7881C10.7791 28.5988 10.629 28.374 10.5267 28.1266C10.4244 27.8792 10.3719 27.614 10.3723 27.3463C10.3719 27.0785 10.4244 26.8134 10.5267 26.5659C10.629 26.3185 10.7791 26.0937 10.9684 25.9044C11.1577 25.715 11.3825 25.5649 11.6299 25.4626C11.8773 25.3602 12.1425 25.3077 12.4102 25.308H14.4485V27.346C14.4489 27.6137 14.3964 27.8789 14.2941 28.1264C14.1919 28.3738 14.0418 28.5987 13.8524 28.788C13.6631 28.9773 13.4383 29.1275 13.1909 29.2298C12.9435 29.3321 12.678 29.3846 12.4102 29.3842ZM48.9282 6.05371H54.5048V27.4061H66.5016V32.1022H48.9282V6.05371Z" fill="#999999"></path><path d="M73.211 32.5425C71.1319 32.5425 69.4566 32.0654 68.1847 31.1115C66.9374 30.1577 66.3135 28.8493 66.3135 27.186C66.3135 25.4984 66.8393 24.1775 67.8913 23.2239C68.943 22.2453 70.5693 21.5361 72.7707 21.0958L79.1176 19.8485C79.1176 17.2803 77.9926 15.9962 75.7424 15.9962C73.7123 15.9962 72.5138 16.9378 72.1471 18.821L66.6437 18.5641C67.0107 16.412 67.9768 14.7854 69.5421 13.685C71.1074 12.5597 73.1742 11.9974 75.7424 11.9974C78.6776 11.9974 80.891 12.6943 82.383 14.0885C83.8749 15.4826 84.6209 17.525 84.6209 20.2152V26.9291C84.6209 27.4672 84.7065 27.8342 84.8776 28.0298C85.049 28.2254 85.3301 28.3232 85.7217 28.3232H86.2717V32.1022C85.7827 32.2491 85.1222 32.3223 84.2907 32.3223C81.8449 32.3223 80.4139 31.2584 79.9982 29.1305C79.4846 30.1822 78.6285 31.0137 77.43 31.6251C76.256 32.2368 74.8495 32.5425 73.211 32.5425ZM74.5316 28.7635C75.9257 28.7635 77.0387 28.36 77.8703 27.553C78.7018 26.7457 79.1176 25.6453 79.1176 24.2508V23.2969L74.6417 24.2511C72.8563 24.6178 71.9634 25.4248 71.9634 26.6724C71.9634 27.3329 72.1836 27.8461 72.6239 28.2131C73.0641 28.5801 73.7001 28.7635 74.5316 28.7635ZM86.6901 12.4374H91.6428L91.7529 15.666C92.7803 13.2202 94.7246 11.9971 97.5865 11.9971C99.6898 11.9971 101.328 12.6698 102.502 14.0152C103.676 15.3358 104.263 17.1457 104.263 19.445V32.1022H98.7605V21.2791C98.7605 19.6161 98.5281 18.381 98.0633 17.574C97.623 16.7667 96.8525 16.3629 95.752 16.3629C94.6025 16.3629 93.722 16.791 93.1106 17.647C92.4989 18.5031 92.1932 19.7142 92.1932 21.2791V32.1022H86.6901V12.4374ZM114.596 38.0455C111.905 38.0455 109.802 37.5565 108.285 36.5781C106.769 35.5997 105.778 34.2546 105.314 32.5425L110.963 32.139C111.184 32.8237 111.563 33.3372 112.101 33.6797C112.663 34.0222 113.495 34.1933 114.596 34.1933C117.31 34.1933 118.668 32.885 118.668 30.2677V28.1766C118.179 29.106 117.42 29.8397 116.393 30.3778C115.39 30.9159 114.253 31.1851 112.981 31.1851C111.367 31.1851 109.936 30.7936 108.689 30.0111C107.441 29.2283 106.463 28.1153 105.754 26.6724C105.069 25.205 104.726 23.5174 104.726 21.6096C104.726 19.7507 105.069 18.0996 105.754 16.6566C106.463 15.1892 107.429 14.0517 108.652 13.2447C109.9 12.4129 111.318 11.9971 112.908 11.9971C114.302 11.9971 115.5 12.3153 116.503 12.951C117.506 13.5626 118.276 14.4064 118.815 15.4823V12.4377H124.208V30.158C124.208 32.7261 123.34 34.6829 121.603 36.028C119.867 37.3734 117.531 38.0455 114.596 38.0455ZM114.559 27.1127C115.831 27.1127 116.834 26.6111 117.567 25.6085C118.326 24.6056 118.705 23.2237 118.705 21.4625C118.705 19.7994 118.326 18.4785 117.567 17.5004C116.809 16.5221 115.806 16.033 114.559 16.033C113.262 16.033 112.235 16.5343 111.477 17.5369C110.743 18.5399 110.376 19.8853 110.376 21.5729C110.376 23.2604 110.756 24.6056 111.514 25.6085C112.272 26.6111 113.287 27.1127 114.559 27.1127ZM137.083 32.5425C135.714 32.5425 134.515 32.2613 133.488 31.6987C132.485 31.1115 131.703 30.28 131.14 29.2038L131.03 32.1022H125.784V6.05371H131.287V15.2257C131.825 14.2718 132.595 13.5013 133.598 12.9145C134.625 12.3028 135.787 11.9971 137.083 11.9971C138.722 11.9971 140.153 12.4251 141.376 13.2812C142.623 14.113 143.577 15.3112 144.238 16.8768C144.923 18.4175 145.265 20.2152 145.265 22.2698C145.265 24.3244 144.923 26.1343 144.238 27.6996C143.577 29.2406 142.623 30.4391 141.376 31.2952C140.153 32.1267 138.722 32.5425 137.083 32.5425ZM135.543 28.3235C136.79 28.3235 137.781 27.7851 138.514 26.7089C139.248 25.633 139.615 24.153 139.615 22.2698C139.615 20.3866 139.248 18.9069 138.514 17.8307C137.805 16.7545 136.827 16.2161 135.579 16.2161C134.234 16.2161 133.182 16.7545 132.424 17.8307C131.666 18.8823 131.287 20.362 131.287 22.2698C131.287 24.153 131.654 25.633 132.387 26.7092C133.146 27.7854 134.197 28.3235 135.543 28.3235Z" fill="#999999"></path><path d="M151.865 32.5422C149.786 32.5422 148.111 32.0651 146.839 31.1112C145.591 30.1574 144.968 28.8491 144.968 27.1857C144.968 25.4981 145.494 24.1772 146.545 23.2237C147.597 22.245 149.224 21.5358 151.425 21.0955L157.772 19.8482C157.772 17.28 156.647 15.9959 154.396 15.9959C152.366 15.9959 151.168 16.9375 150.801 18.8207L145.298 18.5638C145.665 16.4117 146.631 14.7851 148.196 13.6847C149.762 12.5594 151.828 11.9971 154.396 11.9971C157.332 11.9971 159.545 12.694 161.037 14.0882C162.529 15.4823 163.275 17.5247 163.275 20.2149V26.9288C163.275 27.4669 163.36 27.8339 163.532 28.0295C163.703 28.2251 163.984 28.3229 164.376 28.3229H164.926V32.1019C164.437 32.2488 163.776 32.322 162.945 32.322C160.499 32.322 159.068 31.2581 158.652 29.1302C158.139 30.1819 157.283 31.0134 156.084 31.6248C154.91 32.2365 153.504 32.5422 151.865 32.5422ZM153.186 28.7632C154.58 28.7632 155.693 28.3597 156.524 27.5527C157.356 26.7454 157.772 25.645 157.772 24.2505V23.2966L153.296 24.2511C151.51 24.6178 150.618 25.4248 150.618 26.6724C150.618 27.3328 150.838 27.8461 151.278 28.2131C151.718 28.5801 152.354 28.7632 153.186 28.7632Z" fill="#999999"></path><path d="M173.603 32.5425C170.668 32.5425 168.393 31.9434 166.779 30.7448C165.189 29.5218 164.321 27.9075 164.174 25.9019L169.751 25.7185C170.093 27.6753 171.39 28.6534 173.64 28.6534C174.643 28.6534 175.413 28.4946 175.951 28.1767C176.489 27.8342 176.758 27.3451 176.758 26.7092C176.758 26.2689 176.648 25.9142 176.428 25.6453C176.232 25.3761 175.841 25.1437 175.254 24.948C174.691 24.7279 173.86 24.5323 172.759 24.3612C170.68 24.0187 169.054 23.6029 167.88 23.1136C166.706 22.6 165.874 21.9641 165.385 21.2058C164.896 20.4476 164.651 19.4815 164.651 18.3075C164.651 16.3752 165.397 14.8467 166.889 13.7215C168.381 12.572 170.546 11.9971 173.383 11.9971C176.049 11.9971 178.128 12.6088 179.62 13.8315C181.136 15.0546 182.017 16.6931 182.261 18.7477L176.758 18.9679C176.636 17.9898 176.269 17.2312 175.658 16.6934C175.071 16.155 174.288 15.8861 173.31 15.8861C172.356 15.8861 171.61 16.0818 171.072 16.473C170.558 16.8642 170.301 17.4026 170.301 18.0876C170.301 18.7968 170.57 19.3349 171.108 19.7016C171.646 20.0441 172.6 20.313 173.97 20.5089C176.073 20.8023 177.737 21.2058 178.959 21.7194C180.183 22.2333 181.063 22.8815 181.601 23.6639C182.139 24.4464 182.408 25.4251 182.408 26.5991C182.408 28.4823 181.625 29.9498 180.06 31.0015C178.495 32.0289 176.342 32.5425 173.603 32.5425Z" fill="#999999"></path><path d="M191.961 32.5425C189.98 32.5425 188.243 32.1267 186.751 31.2952C185.259 30.4391 184.098 29.2406 183.266 27.6996C182.459 26.1343 182.055 24.3244 182.055 22.2698C182.055 20.2152 182.459 18.4175 183.266 16.8768C184.073 15.3112 185.223 14.113 186.715 13.2812C188.207 12.4251 189.943 11.9971 191.924 11.9971C193.857 11.9971 195.544 12.4251 196.987 13.2812C198.455 14.1372 199.58 15.3726 200.363 16.9869C201.145 18.5767 201.537 20.4599 201.537 22.6365V23.7372H187.742C187.791 25.2537 188.194 26.4032 188.953 27.186C189.711 27.9685 190.75 28.36 192.071 28.36C193.979 28.36 195.202 27.565 195.74 25.9752L201.28 26.3054C200.742 28.2622 199.641 29.791 197.978 30.8914C196.339 31.9921 194.333 32.5425 191.961 32.5425ZM195.923 20.3621C195.85 18.9679 195.459 17.9039 194.749 17.1702C194.04 16.4365 193.098 16.0695 191.924 16.0695C190.775 16.0695 189.821 16.4488 189.063 17.207C188.329 17.965 187.889 19.0169 187.742 20.3621H195.923Z" fill="#999999"></path></g><defs><clipPath id="clip0_1128_11601"><rect width="202" height="40" fill="white"></rect></clipPath></defs></svg>
