<svg width="186" height="40" viewBox="0 0 186 40" fill="none" xmlns="http://www.w3.org/2000/svg">
<g clip-path="url(#clip0_415_425)">
<path d="M0 20.0482C0 9.0024 8.95434 0 20.0001 0C31.0459 0 40.0002 9.0024 40.0002 20.0482C40.0002 26.4491 36.9933 32.1639 32.3148 35.8382V30.0345C32.6397 29.8853 32.9619 29.7298 33.2813 29.5679C34.2296 29.0873 34.5658 28.0052 34.0321 27.151C33.6706 26.5725 33.0028 26.2469 32.3148 26.2464V17.8342C32.6397 17.685 32.9619 17.5295 33.2813 17.3677C34.2296 16.887 34.5658 15.8049 34.0321 14.9507C33.5614 14.1974 32.5712 13.873 31.6934 14.1367C31.0525 12.1565 28.1066 10.4819 24.7991 9.60394C24.8821 9.28526 24.9261 8.95297 24.9261 8.61143C24.9261 6.2224 22.7758 4.28574 20.1233 4.28574C17.4707 4.28574 15.3205 6.2224 15.3205 8.61143C15.3205 8.9316 15.359 9.2436 15.4323 9.54394C12.0316 10.4041 8.96228 12.1103 8.30646 14.1366C7.42554 13.8721 6.43246 14.1999 5.96389 14.9572C5.43416 15.8133 5.77531 16.8942 6.72589 17.3713C7.20366 17.611 7.68783 17.837 8.1776 18.0492V26.3026C7.33046 26.1051 6.40977 26.4369 5.96389 27.1575C5.43416 28.0136 5.77531 29.0945 6.72589 29.5715C7.20366 29.8114 7.68783 30.0373 8.1776 30.2495V36.2126C3.21893 32.559 0 26.6709 0 20.0482Z" fill="black"/>
<path d="M28.3745 31.501V38.2558C26.3936 39.1743 24.2376 39.7774 21.9707 40.0002V32.6177C24.1373 32.479 26.2887 32.1073 28.3745 31.501Z" fill="black"/>
<path d="M18.0302 32.6136V40C15.9499 39.7954 13.963 39.2706 12.1191 38.4757V31.6284C14.0503 32.1532 16.0338 32.4819 18.0302 32.6136Z" fill="black"/>
<path d="M18.0302 29.0534C16.0245 28.8987 14.0358 28.5114 12.1191 27.8924V19.4282C14.0503 19.953 16.0338 20.2817 18.0302 20.4134V29.0534Z" fill="black"/>
<path d="M28.3745 27.7371C26.3096 28.4545 24.1514 28.8943 21.9707 29.0577V20.4173C24.1373 20.2786 26.2887 19.9068 28.3745 19.3005V27.7371Z" fill="black"/>
<path d="M51.4297 5.71436V33.9755H70.0853V29.8888H55.9933V5.71436H51.4297Z" fill="black"/>
<path fill-rule="evenodd" clip-rule="evenodd" d="M80.6056 13.0093C75.8376 13.0093 71.817 15.9514 71.421 20.0658L71.3633 20.666H75.5798L75.6187 20.1563C75.7507 18.4039 77.7353 16.7468 80.525 16.7468C82.1559 16.7468 83.3667 17.1755 84.1627 17.855C84.9519 18.5286 85.3901 19.4966 85.3901 20.6985C85.3901 20.8921 85.3307 20.991 85.2656 21.0479C85.1924 21.1116 85.0261 21.1968 84.6724 21.1968H80.0821C77.5376 21.1968 75.3793 21.8094 73.8433 22.962C72.2924 24.1252 71.4187 25.8093 71.4187 27.8384C71.4187 29.7698 72.1753 31.4001 73.5376 32.5407C74.8919 33.6747 76.797 34.2859 79.0353 34.2859C81.5793 34.2859 83.9056 33.3888 85.3901 31.8384V33.9754H89.7524V20.8149C89.7524 18.5002 88.8684 16.5312 87.2507 15.1465C85.6393 13.7672 83.3496 13.0093 80.6056 13.0093ZM79.5187 30.5484C78.3227 30.5484 77.4044 30.251 76.7976 29.7781C76.2027 29.3152 75.8616 28.6508 75.8616 27.7996C75.8616 26.8246 76.273 26.066 76.9993 25.5358C77.7427 24.9933 78.8576 24.6627 80.2839 24.6627H85.3901C85.381 26.5569 84.8199 28.012 83.8513 28.9924C82.8787 29.9768 81.4307 30.5484 79.5187 30.5484Z" fill="black"/>
<path d="M97.7392 33.9754H93.377V13.3197H97.7392V15.5461C99.1604 13.8446 101.364 13.0093 103.852 13.0093C106.29 13.0093 108.34 13.8476 109.779 15.3552C111.212 16.8582 111.992 18.9792 111.992 21.4746V33.9754H107.63V21.9791C107.63 20.4144 107.159 19.1546 106.382 18.2946C105.61 17.4416 104.503 16.9408 103.128 16.9408C100.042 16.9408 97.7392 19.3097 97.7392 22.8715V33.9754Z" fill="black"/>
<path d="M117.65 7.07251V13.3198H113.422V17.1738H117.65V27.2952C117.65 29.3144 118.315 30.9977 119.55 32.1768C120.784 33.3552 122.529 33.9755 124.582 33.9755H128.253V30.044H124.702C123.849 30.044 123.195 29.7707 122.751 29.3084C122.302 28.8416 122.012 28.1237 122.012 27.14V17.1738H128.253V13.3198H122.012V7.07251H117.65Z" fill="black"/>
<path fill-rule="evenodd" clip-rule="evenodd" d="M145.087 26.5904H149.464L149.355 27.2293C148.615 31.5513 144.735 34.2859 139.491 34.2859C133.128 34.2859 128.895 29.3741 128.895 23.5312C128.895 20.5474 129.858 17.9152 131.639 16.0224C133.427 14.1238 136 13.0093 139.128 13.0093C142.226 13.0093 144.747 14.0485 146.492 15.8082C148.233 17.5642 149.161 19.9962 149.161 22.7163C149.161 23.1584 149.12 23.846 149.075 24.1521L149.005 24.6239H133.27C133.713 28.1064 136.204 30.432 139.491 30.432C141.061 30.432 142.291 30.0996 143.19 29.5206C144.08 28.947 144.687 28.1057 144.977 27.0048L145.087 26.5904ZM143.091 18.0617C142.157 17.2352 140.824 16.7468 139.128 16.7468C137.533 16.7468 136.245 17.1968 135.289 18.0108C134.46 18.7164 133.843 19.7269 133.507 21.0416H144.651C144.448 19.7851 143.9 18.7792 143.091 18.0617Z" fill="black"/>
<path d="M161.424 17.1738H164.813V13.3198H161.665C160.091 13.3198 158.791 13.6589 157.763 14.4057C157.367 14.6938 157.021 15.0354 156.72 15.4277V13.3198H152.357V33.9755H156.72V24.8118C156.72 22.5278 157.012 20.5913 157.751 19.2429C158.115 18.5781 158.581 18.0684 159.166 17.7223C159.749 17.3767 160.485 17.1738 161.424 17.1738Z" fill="black"/>
<path d="M171.462 33.9754H167.1V13.3197H171.462V15.5461C172.883 13.8447 175.087 13.0093 177.575 13.0093C180.012 13.0093 182.063 13.8476 183.501 15.3552C184.935 16.8582 185.715 18.9792 185.715 21.4746V33.9754H181.353V21.9791C181.353 20.4144 180.881 19.1546 180.104 18.2946C179.333 17.4416 178.225 16.9408 176.85 16.9408C173.764 16.9408 171.462 19.3097 171.462 22.8715V33.9754Z" fill="black"/>
</g>
<defs>
<clipPath id="clip0_415_425">
<rect width="185.714" height="40" fill="white"/>
</clipPath>
</defs>
</svg>
