<svg width="72" height="36" viewBox="0 0 72 36" fill="none" xmlns="http://www.w3.org/2000/svg">
<path d="M20.8145 33.2272C21.2835 33.5561 21.6081 33.8381 21.6081 34.4021C21.6081 35.154 21.067 35.483 20.3816 35.483H13.4555C12.8062 35.483 12.2651 35.154 12.2651 34.4021C12.2651 33.8381 12.6258 33.5561 13.0226 33.2272C13.5998 32.7572 14.0327 32.1932 14.2852 31.5352C14.5377 30.8773 14.7181 29.8433 14.7181 26.5535V19.9739C14.7181 16.7781 13.4194 14.8982 11.3271 14.8982C10.4253 14.8982 9.41524 15.2742 8.62161 16.3081C7.32296 18 6.96222 20.5379 6.96222 26.5535C6.96222 29.8433 7.14259 30.8773 7.39511 31.5352C7.64762 32.2402 8.08051 32.8042 8.62161 33.2272C9.09057 33.6031 9.37916 33.8381 9.37916 34.4021C9.37916 35.154 8.87413 35.483 8.18873 35.483H1.33473C0.649327 35.483 0.144295 35.154 0.144295 34.4021C0.144295 33.8381 0.505032 33.5561 0.901842 33.2272C1.40687 32.8042 1.91191 32.2402 2.16442 31.5352C2.38086 30.8773 2.56123 29.8433 2.56123 26.5535V19.3629C2.56123 17.671 2.56123 16.6371 2.27264 15.8851C2.02013 15.2272 1.62332 14.8982 1.01006 14.6162C0.649327 14.4282 0 14.1932 0 13.4883C0 12.9243 0.28859 12.5483 1.11828 12.3133C2.34479 11.9843 3.71559 11.5144 4.65351 10.9974C5.19461 10.7154 5.55535 10.4334 6.06038 10.4334C6.56541 10.4334 6.96222 10.7624 6.96222 11.8433V14.4752C6.96222 14.6162 6.9983 14.7102 7.10652 14.7102C7.17867 14.7102 7.21474 14.6162 7.28689 14.4752C8.58554 11.9843 10.6417 10.4334 13.1308 10.4334C15.1149 10.4334 16.9546 11.5144 18.0369 13.5822C18.8305 15.1332 19.1551 17.0131 19.1551 19.9269V26.5535C19.1551 29.8433 19.3355 30.8773 19.588 31.5352C19.8405 32.1932 20.2373 32.8042 20.8145 33.2272Z" fill="white"/>
<path d="M20.8145 33.2272C21.2835 33.5561 21.6081 33.8381 21.6081 34.4021C21.6081 35.154 21.067 35.483 20.3816 35.483H13.4555C12.8062 35.483 12.2651 35.154 12.2651 34.4021C12.2651 33.8381 12.6258 33.5561 13.0226 33.2272C13.5998 32.7572 14.0327 32.1932 14.2852 31.5352C14.5377 30.8773 14.7181 29.8433 14.7181 26.5535V19.9739C14.7181 16.7781 13.4194 14.8982 11.3271 14.8982C10.4253 14.8982 9.41524 15.2742 8.62161 16.3081C7.32296 18 6.96222 20.5379 6.96222 26.5535C6.96222 29.8433 7.14259 30.8773 7.39511 31.5352C7.64762 32.2402 8.08051 32.8042 8.62161 33.2272C9.09057 33.6031 9.37916 33.8381 9.37916 34.4021C9.37916 35.154 8.87413 35.483 8.18873 35.483H1.33473C0.649327 35.483 0.144295 35.154 0.144295 34.4021C0.144295 33.8381 0.505032 33.5561 0.901842 33.2272C1.40687 32.8042 1.91191 32.2402 2.16442 31.5352C2.38086 30.8773 2.56123 29.8433 2.56123 26.5535V19.3629C2.56123 17.671 2.56123 16.6371 2.27264 15.8851C2.02013 15.2272 1.62332 14.8982 1.01006 14.6162C0.649327 14.4282 0 14.1932 0 13.4883C0 12.9243 0.28859 12.5483 1.11828 12.3133C2.34479 11.9843 3.71559 11.5144 4.65351 10.9974C5.19461 10.7154 5.55535 10.4334 6.06038 10.4334C6.56541 10.4334 6.96222 10.7624 6.96222 11.8433V14.4752C6.96222 14.6162 6.9983 14.7102 7.10652 14.7102C7.17867 14.7102 7.21474 14.6162 7.28689 14.4752C8.58554 11.9843 10.6417 10.4334 13.1308 10.4334C15.1149 10.4334 16.9546 11.5144 18.0369 13.5822C18.8305 15.1332 19.1551 17.0131 19.1551 19.9269V26.5535C19.1551 29.8433 19.3355 30.8773 19.588 31.5352C19.8405 32.1932 20.2373 32.8042 20.8145 33.2272Z" fill="#5B5B5B" fill-opacity="0.36"/>
<path d="M39.5407 18.9399C39.5407 10.3394 37.232 4.51175 33.8772 4.51175C30.4141 4.51175 28.4661 9.35248 28.4661 18.376C28.4661 26.7415 30.7387 32.7572 34.0936 32.7572C37.4124 32.7572 39.5407 28.4804 39.5407 18.9399ZM44.7353 18.517C44.7353 29.0444 39.7572 36 33.7329 36C26.482 36 23.2354 28.1044 23.2354 18.893C23.2354 9.25849 28.0332 1.36293 34.2379 1.36293C40.9115 1.36293 44.7353 8.13055 44.7353 18.517Z" fill="white"/>
<path d="M39.5407 18.9399C39.5407 10.3394 37.232 4.51175 33.8772 4.51175C30.4141 4.51175 28.4661 9.35248 28.4661 18.376C28.4661 26.7415 30.7387 32.7572 34.0936 32.7572C37.4124 32.7572 39.5407 28.4804 39.5407 18.9399ZM44.7353 18.517C44.7353 29.0444 39.7572 36 33.7329 36C26.482 36 23.2354 28.1044 23.2354 18.893C23.2354 9.25849 28.0332 1.36293 34.2379 1.36293C40.9115 1.36293 44.7353 8.13055 44.7353 18.517Z" fill="#5B5B5B" fill-opacity="0.36"/>
<path d="M54.5409 3.94778C54.5409 5.16971 52.4847 7.84857 51.5107 7.84857C50.5367 7.84857 48.5166 5.16971 48.5166 3.94778C48.5166 2.67885 50.5367 0 51.5107 0C52.4847 0 54.5409 2.67885 54.5409 3.94778ZM55.4427 33.2272C55.8756 33.6031 56.2003 33.8851 56.2003 34.4491C56.2003 35.154 55.6592 35.483 55.0099 35.483H48.0837C47.4344 35.483 46.8933 35.154 46.8933 34.4491C46.8933 33.8851 47.2179 33.5561 47.6508 33.2272C48.228 32.8042 48.697 32.2402 48.9134 31.5822C49.1659 30.8773 49.3463 29.8433 49.3463 26.6005V19.3629C49.3463 17.671 49.3463 16.6371 49.0577 15.9321C48.8052 15.3212 48.4444 14.9452 47.7951 14.6162C47.3622 14.3812 46.8211 14.0992 46.8211 13.4883C46.8211 12.9243 47.0736 12.5483 47.9033 12.3133C49.1659 11.9843 50.5367 11.4674 51.4746 10.9974C52.16 10.6684 52.4847 10.4334 52.9176 10.4334C53.4226 10.4334 53.7834 10.7624 53.7834 11.8433V26.6005C53.7834 29.8433 53.9637 30.8773 54.2162 31.5352C54.4688 32.1932 54.9016 32.7572 55.4427 33.2272Z" fill="white"/>
<path d="M54.5409 3.94778C54.5409 5.16971 52.4847 7.84857 51.5107 7.84857C50.5367 7.84857 48.5166 5.16971 48.5166 3.94778C48.5166 2.67885 50.5367 0 51.5107 0C52.4847 0 54.5409 2.67885 54.5409 3.94778ZM55.4427 33.2272C55.8756 33.6031 56.2003 33.8851 56.2003 34.4491C56.2003 35.154 55.6592 35.483 55.0099 35.483H48.0837C47.4344 35.483 46.8933 35.154 46.8933 34.4491C46.8933 33.8851 47.2179 33.5561 47.6508 33.2272C48.228 32.8042 48.697 32.2402 48.9134 31.5822C49.1659 30.8773 49.3463 29.8433 49.3463 26.6005V19.3629C49.3463 17.671 49.3463 16.6371 49.0577 15.9321C48.8052 15.3212 48.4444 14.9452 47.7951 14.6162C47.3622 14.3812 46.8211 14.0992 46.8211 13.4883C46.8211 12.9243 47.0736 12.5483 47.9033 12.3133C49.1659 11.9843 50.5367 11.4674 51.4746 10.9974C52.16 10.6684 52.4847 10.4334 52.9176 10.4334C53.4226 10.4334 53.7834 10.7624 53.7834 11.8433V26.6005C53.7834 29.8433 53.9637 30.8773 54.2162 31.5352C54.4688 32.1932 54.9016 32.7572 55.4427 33.2272Z" fill="#5B5B5B" fill-opacity="0.36"/>
<path d="M71.2785 11.4204C71.8196 12.1723 72 13.3473 72 14.2872C72 15.7441 71.495 16.7781 70.5571 16.7781C70.0881 16.7781 69.6913 16.5431 69.1863 16.1671C68.6812 15.7911 68.3205 15.6031 67.8515 15.6031C67.3104 15.6031 66.7693 15.9321 66.2643 16.5901C65.4707 17.624 64.4245 19.4569 64.4245 26.6005C64.4245 29.8903 64.6049 30.8773 64.8574 31.5822C65.1099 32.2872 65.5428 32.8042 66.0839 33.2272C66.5529 33.6031 66.8415 33.8851 66.8415 34.4491C66.8415 35.154 66.3364 35.483 65.651 35.483H58.761C58.0756 35.483 57.5705 35.154 57.5705 34.4491C57.5705 33.8851 57.8952 33.5561 58.3281 33.2272C58.8692 32.8042 59.3021 32.2872 59.5546 31.5822C59.8071 30.8773 59.9875 29.8433 59.9875 26.6005V19.3159C59.9875 17.624 59.9153 16.5901 59.6267 15.8851C59.3742 15.2742 59.0495 14.9452 58.4002 14.6162C58.0034 14.4282 57.3902 14.1462 57.3902 13.4883C57.3902 12.8773 57.7148 12.5013 58.4724 12.2663C59.8792 11.8433 60.9975 11.4674 62.2962 10.7154C62.693 10.4804 62.9094 10.4334 63.1619 10.4334C63.7031 10.4334 64.0999 10.8564 64.0999 11.8433C64.0999 11.8433 64.0999 14.1932 64.0999 15.5091C64.0999 15.6031 64.0999 15.6971 64.172 15.6971C64.2081 15.6971 64.2081 15.6501 64.2442 15.5561C65.0378 13.3003 67.094 10.4334 69.3306 10.4334C70.1963 10.4334 70.8456 10.8094 71.2785 11.4204Z" fill="white"/>
<path d="M71.2785 11.4204C71.8196 12.1723 72 13.3473 72 14.2872C72 15.7441 71.495 16.7781 70.5571 16.7781C70.0881 16.7781 69.6913 16.5431 69.1863 16.1671C68.6812 15.7911 68.3205 15.6031 67.8515 15.6031C67.3104 15.6031 66.7693 15.9321 66.2643 16.5901C65.4707 17.624 64.4245 19.4569 64.4245 26.6005C64.4245 29.8903 64.6049 30.8773 64.8574 31.5822C65.1099 32.2872 65.5428 32.8042 66.0839 33.2272C66.5529 33.6031 66.8415 33.8851 66.8415 34.4491C66.8415 35.154 66.3364 35.483 65.651 35.483H58.761C58.0756 35.483 57.5705 35.154 57.5705 34.4491C57.5705 33.8851 57.8952 33.5561 58.3281 33.2272C58.8692 32.8042 59.3021 32.2872 59.5546 31.5822C59.8071 30.8773 59.9875 29.8433 59.9875 26.6005V19.3159C59.9875 17.624 59.9153 16.5901 59.6267 15.8851C59.3742 15.2742 59.0495 14.9452 58.4002 14.6162C58.0034 14.4282 57.3902 14.1462 57.3902 13.4883C57.3902 12.8773 57.7148 12.5013 58.4724 12.2663C59.8792 11.8433 60.9975 11.4674 62.2962 10.7154C62.693 10.4804 62.9094 10.4334 63.1619 10.4334C63.7031 10.4334 64.0999 10.8564 64.0999 11.8433C64.0999 11.8433 64.0999 14.1932 64.0999 15.5091C64.0999 15.6031 64.0999 15.6971 64.172 15.6971C64.2081 15.6971 64.2081 15.6501 64.2442 15.5561C65.0378 13.3003 67.094 10.4334 69.3306 10.4334C70.1963 10.4334 70.8456 10.8094 71.2785 11.4204Z" fill="#5B5B5B" fill-opacity="0.36"/>
</svg>
