<svg width="338" height="40" viewBox="0 0 338 40" fill="none" xmlns="http://www.w3.org/2000/svg">
<path fill-rule="evenodd" clip-rule="evenodd" d="M0 0H15.0919V1.20504H18.0759V2.2954H21.8059V3.61513H25.1342V2.2954H29.725V1.20504H34.0287V0H60.655V1.20504H63.6388V2.2954H67.3688V3.61513H70.6971V2.2954H75.2879V1.20504H79.5916V0H91.7572V6.25482H79.5916V7.17303H75.5173V8.37807H82.725V11.4195H85.1006V32.6897H82.725V35.3322H80.2173V37.5783H77.5776V39.8245H60.9476V37.5783H58.5719V35.3322H56.1962V32.6897H53.4245V11.4195H56.1962V8.37807H63.5873V7.17303H60.655V6.25482H34.0287V7.17303H29.9544V8.37807H37.1618V11.4195H39.5377V32.6897H37.1618V35.3322H34.6542V37.5783H32.0147V39.8245H15.3846V37.5783H13.009V35.3322H10.6333V32.6897H7.86162V11.4195H10.6333V8.37807H18.0243V7.17303H15.0919V6.25482H0V0ZM15.4936 15.0346H18.1333V12.6818H29.7478V15.0346H32.1237V30.5636H29.7478V33.2061H18.1333V30.5636H15.4936V15.0346ZM61.0566 15.0346H63.6962V12.6818H75.3107V15.0346H77.6866V30.5636H75.3107V33.2061H63.6962V30.5636H61.0566V15.0346Z" fill="black"/>
<path d="M140.258 9.23703H143.334V24.6186H140.258V27.6949H137.182V30.771H134.105V33.8473H112.571V40H103.343V0.00830078H134.105V3.08462H137.182V6.16093H140.258V9.23703ZM131.029 21.5423H134.105V12.3133H131.029V9.23703H112.571V24.6186H131.029V21.5423Z" fill="black"/>
<path d="M189.467 9.23703H192.542V40H183.314V30.771H161.781V40H152.551V9.23703H155.628V6.16093H158.704V3.08462H161.781V0.00830078H183.314V3.08462H186.391V6.16093H189.467V9.23703ZM164.856 12.3133H161.781V21.5423H183.314V12.3133H180.237V9.23703H164.856V12.3133Z" fill="black"/>
<path d="M238.675 9.23703H241.752V24.6186H238.675V27.6949H235.599V30.771H238.675V33.8473H241.752V40H232.522V36.9236H229.445V33.8473H210.989V40H201.759V0.00830078H232.522V3.08462H235.599V6.16093H238.675V9.23703ZM229.445 21.5423H232.522V12.3133H229.445V9.23703H210.989V24.6186H229.445V21.5423Z" fill="black"/>
<path d="M287.884 9.23703H290.961V24.6186H287.884V27.6949H284.807V30.771H287.884V33.8473H290.961V40H281.73V36.9236H278.656V33.8473H260.198V40H250.967V0.00830078H281.73V3.08462H284.807V6.16093H287.884V9.23703ZM278.656 21.5423H281.73V12.3133H278.656V9.23703H260.198V24.6186H278.656V21.5423Z" fill="black"/>
<path d="M337.103 0.00830078V15.3897H334.028V18.466H330.952V21.5423H327.875V24.6186H324.798V27.6949H321.724V40H312.493V27.6949H309.417V24.6186H306.342V21.5423H303.265V18.466H300.189V15.3897H297.112V0.00830078H306.342V12.3133H309.417V15.3897H312.493V18.466H321.724V15.3897H324.798V12.3133H327.875V0.00830078H337.103Z" fill="black"/>
</svg>
