<svg width="74" height="36" viewBox="0 0 74 36" fill="none" xmlns="http://www.w3.org/2000/svg"><g clip-path="url(#clip0_1128_11619)"><path d="M0 27.566H4.92907C4.92907 28.9169 5.42198 29.994 6.4078 30.7973C7.39361 31.564 8.72629 31.9474 10.4058 31.9474C12.2314 31.9474 13.6371 31.6005 14.6229 30.9068C15.6087 30.1766 16.1016 29.209 16.1016 28.0041C16.1016 27.1279 15.8278 26.3976 15.2801 25.8134C14.769 25.2293 13.8197 24.7546 12.4322 24.3895L7.72222 23.2941C5.34896 22.71 3.57814 21.8154 2.40977 20.6105C1.27791 19.4057 0.711977 17.8174 0.711977 15.8458C0.711977 14.2027 1.13186 12.7788 1.97163 11.5739C2.84791 10.369 4.03454 9.43795 5.53152 8.78074C7.06501 8.12353 8.81756 7.79492 10.7892 7.79492C12.7608 7.79492 14.4586 8.14179 15.8826 8.83551C17.343 9.52923 18.4749 10.4968 19.2782 11.7382C20.1179 12.9796 20.5561 14.4583 20.5926 16.1744H15.6635C15.627 14.7869 15.1706 13.7098 14.2943 12.9431C13.418 12.1763 12.1949 11.793 10.6249 11.793C9.01838 11.793 7.77698 12.1398 6.9007 12.8336C6.02442 13.5273 5.58628 14.4766 5.58628 15.6815C5.58628 17.4705 6.9007 18.6937 9.52954 19.3509L14.2395 20.501C16.5033 21.0122 18.2011 21.8519 19.3329 23.0203C20.4648 24.1522 21.0307 25.7039 21.0307 27.6755C21.0307 29.3551 20.5743 30.8338 19.6615 32.1117C18.7487 33.3531 17.4891 34.3207 15.8826 35.0144C14.3126 35.6716 12.4505 36.0002 10.2963 36.0002C7.15629 36.0002 4.65524 35.2335 2.79314 33.7C0.931047 32.1665 0 30.1218 0 27.566Z" fill="#999999"></path><path d="M24.6556 35.3428V8.56149C26.7084 9.30651 27.6135 9.30651 29.8037 8.56149V35.3428H24.6556ZM27.1749 6.79117C26.2621 6.79117 25.4589 6.46256 24.7651 5.80535C24.1079 5.11163 23.7793 4.30838 23.7793 3.39558C23.7793 2.44628 24.1079 1.64303 24.7651 0.985815C25.4589 0.328605 26.2621 0 27.1749 0C28.1242 0 28.9275 0.328605 29.5847 0.985815C30.2419 1.64303 30.5705 2.44628 30.5705 3.39558C30.5705 4.30838 30.2419 5.11163 29.5847 5.80535C28.9275 6.46256 28.1242 6.79117 27.1749 6.79117Z" fill="#999999"></path><path d="M38.8845 35.343H33.7363V8.56167H38.3368V13.0804C38.8845 11.5834 39.9433 10.3142 41.4038 9.32841C42.9008 8.30609 44.7081 7.79492 46.8258 7.79492C49.199 7.79492 51.1707 8.43388 52.7407 9.71179C54.3107 10.9897 55.333 12.6875 55.8076 14.8052H54.8766C55.2417 12.6875 56.2458 10.9897 57.8888 9.71179C59.5318 8.43388 61.5582 7.79492 63.968 7.79492C67.035 7.79492 69.4447 8.68946 71.1973 10.4786C72.9499 12.2676 73.8261 14.7139 73.8261 17.8174V35.343H68.7875V19.077C68.7875 16.9594 68.2399 15.3346 67.1445 14.2027C66.0857 13.0344 64.6435 12.4502 62.8179 12.4502C61.54 12.4502 60.4081 12.7423 59.4223 13.3265C58.473 13.8741 57.7245 14.6774 57.1768 15.7362C56.6292 16.7951 56.3553 18.0365 56.3553 19.4604V35.343H51.2619V19.0223C51.2619 16.9046 50.7325 15.2981 49.6737 14.2027C48.6148 13.0709 47.1726 12.5049 45.3471 12.5049C44.0691 12.5049 42.9373 12.797 41.9515 13.3812C41.0022 13.9289 40.2537 14.7322 39.706 15.791C39.1583 16.8133 38.8845 18.0365 38.8845 19.4604V35.343Z" fill="#999999"></path></g><defs><clipPath id="clip0_1128_11619"><rect width="74" height="36" fill="white"></rect></clipPath></defs></svg>
