<svg width="144" height="40" viewBox="0 0 144 40" fill="none" xmlns="http://www.w3.org/2000/svg">
<g clip-path="url(#clip0_973_14)">
<path d="M17.2306 1.53843L1.24249 10.7692V29.2307L17.2306 38.4615L33.2188 29.2307V10.7692L17.2306 1.53843ZM34.4495 29.9414L17.2306 39.8826L0.0117188 29.9414V10.0586L17.2306 0.11731L34.4495 10.0586V29.9414Z" fill="black"/>
<path d="M17.2304 7.6923L6.57159 13.8461V26.1538L17.2304 32.3077L27.8892 26.1538V13.8461L17.2304 7.6923ZM29.1199 26.8645L17.2304 33.7288L5.34082 26.8645V13.1355L17.2304 6.27118L29.1199 13.1355V26.8645Z" fill="black"/>
<path d="M33.9234 11.0711L17.308 20.6865L16.6914 19.6212L33.3068 10.0059L33.9234 11.0711Z" fill="black"/>
<path d="M17.846 0.923096V6.9231H16.6152V0.923096H17.846Z" fill="black"/>
<path d="M33.7721 28.8537L33.1502 29.9155L27.7656 26.7617L28.3875 25.6998L33.7721 28.8537Z" fill="black"/>
<path d="M17.846 32.7692V38.9231H16.6152V32.7692H17.846Z" fill="black"/>
<path d="M6.31081 26.9925L0.926193 30.1463L0.304199 29.0844L5.68881 25.9306L6.31081 26.9925Z" fill="black"/>
<path d="M17.9213 19.6202L17.3087 20.6876L0.154785 10.8414L0.767465 9.77405L17.9213 19.6202Z" fill="black"/>
<path d="M51.4707 28.7692V12.9169H45.8584V11.2923H58.7569V12.9169H53.1446V28.7692H51.4707ZM63.1076 29.0646C59.3907 29.0646 57.2246 26.2338 57.2246 22.2461C57.2246 18.2585 59.3661 15.4277 63.0092 15.4277C66.5046 15.4277 68.6707 18.1108 68.6707 22.1969V22.7138H58.923C59.0461 25.8154 60.6215 27.5138 63.1076 27.5138C65.003 27.5138 66.2338 26.5046 66.7015 25.0031L68.4492 25.1261C67.7846 27.44 65.8153 29.0646 63.1076 29.0646ZM58.923 21.2615H66.8984C66.7261 18.48 65.2738 16.9785 63.0092 16.9785C60.7446 16.9785 59.2184 18.5292 58.923 21.2615ZM75.2153 29.0646C71.8184 29.0646 69.8738 27.2431 69.7015 24.7569L71.3999 24.6338C71.5969 26.3569 72.8522 27.5138 75.2153 27.5138C77.283 27.5138 78.4892 26.8246 78.4892 25.3969C78.4892 24.2154 77.9722 23.6492 74.8215 23.1077C71.1046 22.4431 70.0707 21.36 70.0707 19.3415C70.0707 17.0277 71.843 15.4277 74.8215 15.4277C77.8738 15.4277 79.523 17.2985 79.9169 19.5138L78.2184 19.6615C77.9476 18.16 76.8153 16.9785 74.7969 16.9785C72.8276 16.9785 71.7692 17.8892 71.7692 19.2677C71.7692 20.6954 72.5815 21.2369 75.1907 21.68C79.0799 22.32 80.2122 23.3538 80.2122 25.3723C80.2122 27.7354 78.1446 29.0646 75.2153 29.0646ZM86.7547 29.0646C83.3578 29.0646 81.4132 27.2431 81.2409 24.7569L82.9393 24.6338C83.1363 26.3569 84.3916 27.5138 86.7547 27.5138C88.8224 27.5138 90.0286 26.8246 90.0286 25.3969C90.0286 24.2154 89.5116 23.6492 86.3609 23.1077C82.6439 22.4431 81.6101 21.36 81.6101 19.3415C81.6101 17.0277 83.3824 15.4277 86.3609 15.4277C89.4132 15.4277 91.0624 17.2985 91.4562 19.5138L89.7578 19.6615C89.487 18.16 88.3547 16.9785 86.3362 16.9785C84.367 16.9785 83.3086 17.8892 83.3086 19.2677C83.3086 20.6954 84.1209 21.2369 86.7301 21.68C90.6193 22.32 91.7516 23.3538 91.7516 25.3723C91.7516 27.7354 89.6839 29.0646 86.7547 29.0646ZM98.6633 29.0646C94.9464 29.0646 92.7803 26.2338 92.7803 22.2461C92.7803 18.2585 94.9218 15.4277 98.5649 15.4277C102.06 15.4277 104.226 18.1108 104.226 22.1969V22.7138H94.4787C94.6018 25.8154 96.1772 27.5138 98.6633 27.5138C100.559 27.5138 101.789 26.5046 102.257 25.0031L104.005 25.1261C103.34 27.44 101.371 29.0646 98.6633 29.0646ZM94.4787 21.2615H102.454C102.282 18.48 100.829 16.9785 98.5649 16.9785C96.3002 16.9785 94.7741 18.5292 94.4787 21.2615ZM106.143 28.7692V15.7231H107.547L107.62 18.3077C108.137 16.56 109.196 15.7231 110.894 15.7231H112.027V17.2985H110.845C108.876 17.2985 107.768 18.6523 107.768 20.8185V28.7692H106.143ZM116.586 29.0646C113.952 29.0646 112.253 27.7354 112.253 25.5446C112.253 23.4031 113.632 22.1969 116.315 21.68L121.14 20.7692C121.14 18.1846 120.032 16.9785 117.767 16.9785C115.749 16.9785 114.592 17.9631 114.198 19.7108L112.475 19.5631C112.943 17.0523 114.863 15.4277 117.767 15.4277C120.992 15.4277 122.764 17.3477 122.764 20.7446V26.1846C122.764 27.0461 123.035 27.3169 123.65 27.3169H124.044V28.7692C123.897 28.7938 123.65 28.8185 123.38 28.8185C121.977 28.8185 121.263 28.2277 121.14 26.5292C120.475 27.9815 118.653 29.0646 116.586 29.0646ZM116.733 27.6123C119.417 27.6123 121.14 25.84 121.14 23.5261V22.2215L116.66 23.0585C114.789 23.4031 113.952 24.1415 113.952 25.3969C113.952 26.8246 114.986 27.6123 116.733 27.6123ZM130.444 29.0646C126.776 29.0646 124.61 26.2338 124.61 22.2461C124.61 18.2585 126.776 15.4277 130.444 15.4277C133.422 15.4277 135.367 17.1508 135.884 19.9077L134.185 20.0061C133.792 18.0861 132.438 16.9785 130.444 16.9785C127.859 16.9785 126.309 18.9723 126.309 22.2461C126.309 25.52 127.859 27.5138 130.444 27.5138C132.438 27.5138 133.841 26.3569 134.21 24.2154L135.909 24.3384C135.416 27.1692 133.422 29.0646 130.444 29.0646ZM141.565 28.7692C139.449 28.7692 138.439 27.8092 138.439 25.7169V17.1754H136.396V15.7231H138.439V12.6708H140.064V15.7231H143.436V17.1754H140.064V25.6677C140.064 26.8984 140.605 27.3169 141.713 27.3169H143.436V28.7692H141.565Z" fill="black"/>
</g>
<defs>
<clipPath id="clip0_973_14">
<rect width="143.538" height="40" fill="white"/>
</clipPath>
</defs>
</svg>
