<svg width="97" height="24" viewBox="0 0 97 24" fill="none" xmlns="http://www.w3.org/2000/svg">
<path d="M0 4.8131V0H18.6303V4.8131H12.1473V23.3779H6.48295V4.8131H0Z" fill="#999999"/>
<path d="M25.1181 4.61664H19.5192V0H25.1181V4.61664ZM19.4864 23.3779V6.45021H24.9871V23.3779H19.4864Z" fill="#999999"/>
<path d="M44.4076 18.4338C43.3271 21.5771 40.2821 24 35.8291 24C30.6231 24 26.825 20.3656 26.825 14.8977C26.825 9.69168 30.6886 5.86085 35.9601 5.86085C41.3625 5.86085 44.6695 9.65894 44.6695 15.3233C44.6695 15.5525 44.6695 15.9782 44.6368 16.4366H32.0638C32.4567 18.4011 33.9301 19.7108 35.8619 19.7108C37.1388 19.7108 38.252 19.2851 38.8741 18.4338H44.4076ZM32.0638 13.1623H39.4635C39.2671 11.7217 38.2848 9.85539 35.8619 9.85539C33.8646 9.85539 32.4239 11.1651 32.0638 13.1623Z" fill="#999999"/>
<path d="M51.7953 6.45021V9.03684C52.8758 6.87585 54.8403 6.18827 57.0013 6.09004V11.2306C56.6739 11.2306 54.7748 11.1978 54.0217 11.558C52.974 11.9836 51.9917 12.704 51.9917 16.1419V23.3779H46.491V6.45021H51.7953Z" fill="#999999"/>
<path d="M81.4507 23.3779H76.1465V7.85812H70.1219V4.71487C73.0687 4.71487 75.5571 3.69986 76.8341 0H81.4507V23.3779Z" fill="#999999"/>
<path d="M88.7814 1.50614H86.7514V6.51569H84.9833V1.50614H82.9533V0H88.7814V1.50614ZM89.5017 6.51569V0H91.9246L93.2671 4.71487L94.4458 0H96.8359V6.51569H95.1661V1.99727H95.1334L93.9546 6.51569H92.3503L91.2043 1.96453H91.1716V6.51569H89.5017Z" fill="#999999"/>
<path d="M72.7284 14.2974H55.4842V18.663H72.7284V14.2974Z" fill="#999999"/>
</svg>
