<svg width="177" height="33" viewBox="0 0 177 33" fill="none" xmlns="http://www.w3.org/2000/svg">
<g opacity="0.9">
<path d="M18.6896 32.7068H10.5816L0 0H7.37507L14.6585 22.9956H14.7501L22.1252 0H29.5461L18.6896 32.7068Z" fill="white"/>
<path d="M32.335 0H56.7964V6.04664H39.5268V13.0552H55.3763V18.6438H39.5268V26.6602H57.1629V32.7068H32.335V0Z" fill="white"/>
<path d="M69.2762 6.04664H59.4733V0H86.2709V6.04664H76.468V32.7068H69.2762V6.04664Z" fill="white"/>
<path d="M97.2798 6.04664H87.4769V0H114.275V6.04664H104.472V32.7068H97.2798V6.04664Z" fill="white"/>
<path d="M118.046 0H142.507V6.04664H125.238V13.0552H141.087V18.6438H125.238V26.6602H142.874V32.7068H118.046V0Z" fill="white"/>
<path d="M154.941 26.6602H161.354C162.393 26.6602 163.4 26.4922 164.378 26.1563C165.355 25.8204 166.225 25.2707 166.989 24.5072C167.752 23.7132 168.363 22.6902 168.821 21.4381C169.279 20.186 169.508 18.6591 169.508 16.8573C169.508 15.2082 169.34 13.7271 169.004 12.4139C168.699 11.0702 168.18 9.92504 167.447 8.97834C166.714 8.03165 165.737 7.31399 164.515 6.82537C163.324 6.30622 161.843 6.04664 160.072 6.04664H154.941V26.6602ZM147.749 0H161.858C163.965 0 165.92 0.335925 167.722 1.00777C169.554 1.67962 171.127 2.6874 172.44 4.03109C173.783 5.37479 174.822 7.05441 175.555 9.06996C176.318 11.0855 176.7 13.4522 176.7 16.1702C176.7 18.5522 176.395 20.751 175.784 22.7665C175.173 24.7821 174.242 26.5228 172.989 27.9886C171.768 29.4545 170.226 30.6149 168.363 31.47C166.531 32.2946 164.362 32.7068 161.858 32.7068H147.749V0Z" fill="white"/>
</g>
</svg>
